<?xml version="1.0" encoding="UTF-8" standalone="no"?><svg xmlns="http://www.w3.org/2000/svg" xmlns:xlink="http://www.w3.org/1999/xlink" contentScriptType="application/ecmascript" contentStyleType="text/css" height="971px" preserveAspectRatio="none" style="width:2246px;height:971px;background:#FFFFFF;" version="1.1" viewBox="0 0 2246 971" width="2246px" zoomAndPan="magnify"><defs><filter height="300%" id="f11up1d0kfn90q" width="300%" x="-1" y="-1"><feGaussianBlur result="blurOut" stdDeviation="2.0"/><feColorMatrix in="blurOut" result="blurOut2" type="matrix" values="0 0 0 0 0 0 0 0 0 0 0 0 0 0 0 0 0 0 .4 0"/><feOffset dx="4.0" dy="4.0" in="blurOut2" result="blurOut3"/><feBlend in="SourceGraphic" in2="blurOut3" mode="normal"/></filter></defs><g><!--MD5=[aba8253125d43e5f3e83b96bc0d923b8]
class Almacen--><rect codeLine="7" fill="#FEFECE" filter="url(#f11up1d0kfn90q)" height="48" id="Almacen" style="stroke:#A80036;stroke-width:1.5;" width="80" x="862.5" y="639.5"/><ellipse cx="877.5" cy="655.5" fill="#ADD1B2" rx="11" ry="11" style="stroke:#A80036;stroke-width:1.0;"/><path d="M880.2656,651.375 Q880.4219,651.1563 880.6094,651.0469 Q880.7969,650.9375 881.0156,650.9375 Q881.3906,650.9375 881.625,651.1953 Q881.8594,651.4531 881.8594,652.0625 L881.8594,653.5156 Q881.8594,654.125 881.625,654.3906 Q881.3906,654.6563 881.0156,654.6563 Q880.6719,654.6563 880.4688,654.4531 Q880.2656,654.2656 880.1563,653.75 Q880.1094,653.3906 879.9219,653.2031 Q879.5938,652.8281 878.9844,652.6094 Q878.375,652.3906 877.75,652.3906 Q876.9844,652.3906 876.3516,652.7188 Q875.7188,653.0469 875.2266,653.7969 Q874.7344,654.5469 874.7344,655.5781 L874.7344,656.6719 Q874.7344,657.9063 875.625,658.7266 Q876.5156,659.5469 878.1094,659.5469 Q879.0469,659.5469 879.7031,659.2969 Q880.0938,659.1406 880.5156,658.7031 Q880.7813,658.4375 880.9297,658.3594 Q881.0781,658.2813 881.2813,658.2813 Q881.6094,658.2813 881.8672,658.5391 Q882.125,658.7969 882.125,659.1406 Q882.125,659.4844 881.7813,659.8906 Q881.2813,660.4688 880.4844,660.7969 Q879.4063,661.25 878.1094,661.25 Q876.5938,661.25 875.3906,660.625 Q874.4063,660.125 873.7188,659.0547 Q873.0313,657.9844 873.0313,656.7031 L873.0313,655.5469 Q873.0313,654.2188 873.6484,653.0703 Q874.2656,651.9219 875.3594,651.3047 Q876.4531,650.6875 877.6875,650.6875 Q878.4219,650.6875 879.0703,650.8516 Q879.7188,651.0156 880.2656,651.375 Z " fill="#000000"/><text fill="#000000" font-family="sans-serif" font-size="12" lengthAdjust="spacing" textLength="48" x="891.5" y="660.4102">Almacen</text><line style="stroke:#A80036;stroke-width:1.5;" x1="863.5" x2="941.5" y1="671.5" y2="671.5"/><line style="stroke:#A80036;stroke-width:1.5;" x1="863.5" x2="941.5" y1="679.5" y2="679.5"/><!--MD5=[f48c77f2c8d7403f9a3d2cb36bec2fea]
class Casillero--><rect codeLine="10" fill="#FEFECE" filter="url(#f11up1d0kfn90q)" height="117.1797" id="Casillero" style="stroke:#A80036;stroke-width:1.5;" width="182" x="1481.5" y="605"/><ellipse cx="1543.75" cy="621" fill="#A9DCDF" rx="11" ry="11" style="stroke:#A80036;stroke-width:1.0;"/><path d="M1545.9375,622.7656 L1541.7969,622.7656 L1541.375,623.7969 L1541.7969,623.7969 Q1542.4063,623.7969 1542.6719,624.0313 Q1542.9375,624.2656 1542.9375,624.6563 Q1542.9375,625.0313 1542.6719,625.2656 Q1542.4063,625.5 1541.7969,625.5 L1539.5,625.5 Q1538.8906,625.5 1538.6328,625.2656 Q1538.375,625.0313 1538.375,624.6406 Q1538.375,624.2656 1538.6484,624.0234 Q1538.9219,623.7813 1539.5469,623.7969 L1542.2188,617.1406 L1541.1094,617.1406 Q1540.5,617.1406 1540.2344,616.9063 Q1539.9688,616.6719 1539.9688,616.2813 Q1539.9688,615.9063 1540.2344,615.6719 Q1540.5,615.4375 1541.1094,615.4375 L1544.7813,615.4375 L1548.1719,623.7969 Q1548.7656,623.7969 1548.9531,623.9375 Q1549.3438,624.2031 1549.3438,624.6563 Q1549.3438,625.0313 1549.0859,625.2656 Q1548.8281,625.5 1548.2188,625.5 L1545.9219,625.5 Q1545.3125,625.5 1545.0469,625.2656 Q1544.7813,625.0313 1544.7813,624.6406 Q1544.7813,624.2656 1545.0469,624.0313 Q1545.3125,623.7969 1545.9219,623.7969 L1546.3438,623.7969 L1545.9375,622.7656 Z M1545.2188,621.0625 L1543.8594,617.6875 L1542.4844,621.0625 L1545.2188,621.0625 Z " fill="#000000"/><text fill="#000000" font-family="sans-serif" font-size="12" font-style="italic" lengthAdjust="spacing" textLength="49" x="1564.25" y="625.9102">Casillero</text><line style="stroke:#A80036;stroke-width:1.5;" x1="1482.5" x2="1662.5" y1="637" y2="637"/><rect fill="none" height="6" style="stroke:#C82930;stroke-width:1.0;" width="6" x="1489.5" y="645"/><text fill="#000000" font-family="sans-serif" font-size="11" lengthAdjust="spacing" textLength="57" x="1501.5" y="652.4189">color: string</text><line style="stroke:#A80036;stroke-width:1.5;" x1="1482.5" x2="1662.5" y1="658.8359" y2="658.8359"/><ellipse cx="1492.5" cy="669.8359" fill="#84BE84" rx="3" ry="3" style="stroke:#038048;stroke-width:1.0;"/><text fill="#000000" font-family="sans-serif" font-size="11" font-style="italic" lengthAdjust="spacing" textLength="71" x="1501.5" y="674.2549">saludar(): void</text><ellipse cx="1492.5" cy="683.6719" fill="#84BE84" rx="3" ry="3" style="stroke:#038048;stroke-width:1.0;"/><text fill="#000000" font-family="sans-serif" font-size="11" font-style="italic" lengthAdjust="spacing" textLength="156" x="1501.5" y="688.0908">es_casillero_transitable(): bool</text><ellipse cx="1492.5" cy="697.5078" fill="#84BE84" rx="3" ry="3" style="stroke:#038048;stroke-width:1.0;"/><text fill="#000000" font-family="sans-serif" font-size="11" font-style="italic" lengthAdjust="spacing" textLength="105" x="1501.5" y="701.9268">esta_ocupado(): bool</text><ellipse cx="1492.5" cy="711.3438" fill="#84BE84" rx="3" ry="3" style="stroke:#038048;stroke-width:1.0;"/><text fill="#000000" font-family="sans-serif" font-size="11" font-style="italic" lengthAdjust="spacing" textLength="134" x="1501.5" y="715.7627">obtener_contenido(): string</text><!--MD5=[e85e68e51f4c7c59e95c1c7ce077dee3]
class Coordenada--><rect codeLine="19" fill="#FEFECE" filter="url(#f11up1d0kfn90q)" height="75.6719" id="Coordenada" style="stroke:#A80036;stroke-width:1.5;" width="101" x="1248" y="625.5"/><ellipse cx="1263" cy="641.5" fill="#ADD1B2" rx="11" ry="11" style="stroke:#A80036;stroke-width:1.0;"/><path d="M1265.7656,637.375 Q1265.9219,637.1563 1266.1094,637.0469 Q1266.2969,636.9375 1266.5156,636.9375 Q1266.8906,636.9375 1267.125,637.1953 Q1267.3594,637.4531 1267.3594,638.0625 L1267.3594,639.5156 Q1267.3594,640.125 1267.125,640.3906 Q1266.8906,640.6563 1266.5156,640.6563 Q1266.1719,640.6563 1265.9688,640.4531 Q1265.7656,640.2656 1265.6563,639.75 Q1265.6094,639.3906 1265.4219,639.2031 Q1265.0938,638.8281 1264.4844,638.6094 Q1263.875,638.3906 1263.25,638.3906 Q1262.4844,638.3906 1261.8516,638.7188 Q1261.2188,639.0469 1260.7266,639.7969 Q1260.2344,640.5469 1260.2344,641.5781 L1260.2344,642.6719 Q1260.2344,643.9063 1261.125,644.7266 Q1262.0156,645.5469 1263.6094,645.5469 Q1264.5469,645.5469 1265.2031,645.2969 Q1265.5938,645.1406 1266.0156,644.7031 Q1266.2813,644.4375 1266.4297,644.3594 Q1266.5781,644.2813 1266.7813,644.2813 Q1267.1094,644.2813 1267.3672,644.5391 Q1267.625,644.7969 1267.625,645.1406 Q1267.625,645.4844 1267.2813,645.8906 Q1266.7813,646.4688 1265.9844,646.7969 Q1264.9063,647.25 1263.6094,647.25 Q1262.0938,647.25 1260.8906,646.625 Q1259.9063,646.125 1259.2188,645.0547 Q1258.5313,643.9844 1258.5313,642.7031 L1258.5313,641.5469 Q1258.5313,640.2188 1259.1484,639.0703 Q1259.7656,637.9219 1260.8594,637.3047 Q1261.9531,636.6875 1263.1875,636.6875 Q1263.9219,636.6875 1264.5703,636.8516 Q1265.2188,637.0156 1265.7656,637.375 Z " fill="#000000"/><text fill="#000000" font-family="sans-serif" font-size="12" lengthAdjust="spacing" textLength="69" x="1277" y="646.4102">Coordenada</text><line style="stroke:#A80036;stroke-width:1.5;" x1="1249" x2="1348" y1="657.5" y2="657.5"/><rect fill="none" height="6" style="stroke:#C82930;stroke-width:1.0;" width="6" x="1256" y="665.5"/><text fill="#000000" font-family="sans-serif" font-size="11" lengthAdjust="spacing" textLength="62" x="1268" y="672.9189">x: std::size_t</text><rect fill="none" height="6" style="stroke:#C82930;stroke-width:1.0;" width="6" x="1256" y="679.3359"/><text fill="#000000" font-family="sans-serif" font-size="11" lengthAdjust="spacing" textLength="62" x="1268" y="686.7549">y: std::size_t</text><line style="stroke:#A80036;stroke-width:1.5;" x1="1249" x2="1348" y1="693.1719" y2="693.1719"/><!--MD5=[cf725c5d9872d8a70fa38ee46212c6bd]
class Edificio--><rect codeLine="24" fill="#FEFECE" filter="url(#f11up1d0kfn90q)" height="144.8516" id="Edificio" style="stroke:#A80036;stroke-width:1.5;" width="451" x="130" y="313"/><ellipse cx="331.25" cy="329" fill="#ADD1B2" rx="11" ry="11" style="stroke:#A80036;stroke-width:1.0;"/><path d="M334.0156,324.875 Q334.1719,324.6563 334.3594,324.5469 Q334.5469,324.4375 334.7656,324.4375 Q335.1406,324.4375 335.375,324.6953 Q335.6094,324.9531 335.6094,325.5625 L335.6094,327.0156 Q335.6094,327.625 335.375,327.8906 Q335.1406,328.1563 334.7656,328.1563 Q334.4219,328.1563 334.2188,327.9531 Q334.0156,327.7656 333.9063,327.25 Q333.8594,326.8906 333.6719,326.7031 Q333.3438,326.3281 332.7344,326.1094 Q332.125,325.8906 331.5,325.8906 Q330.7344,325.8906 330.1016,326.2188 Q329.4688,326.5469 328.9766,327.2969 Q328.4844,328.0469 328.4844,329.0781 L328.4844,330.1719 Q328.4844,331.4063 329.375,332.2266 Q330.2656,333.0469 331.8594,333.0469 Q332.7969,333.0469 333.4531,332.7969 Q333.8438,332.6406 334.2656,332.2031 Q334.5313,331.9375 334.6797,331.8594 Q334.8281,331.7813 335.0313,331.7813 Q335.3594,331.7813 335.6172,332.0391 Q335.875,332.2969 335.875,332.6406 Q335.875,332.9844 335.5313,333.3906 Q335.0313,333.9688 334.2344,334.2969 Q333.1563,334.75 331.8594,334.75 Q330.3438,334.75 329.1406,334.125 Q328.1563,333.625 327.4688,332.5547 Q326.7813,331.4844 326.7813,330.2031 L326.7813,329.0469 Q326.7813,327.7188 327.3984,326.5703 Q328.0156,325.4219 329.1094,324.8047 Q330.2031,324.1875 331.4375,324.1875 Q332.1719,324.1875 332.8203,324.3516 Q333.4688,324.5156 334.0156,324.875 Z " fill="#000000"/><text fill="#000000" font-family="sans-serif" font-size="12" lengthAdjust="spacing" textLength="40" x="351.75" y="333.9102">Edificio</text><line style="stroke:#A80036;stroke-width:1.5;" x1="131" x2="580" y1="345" y2="345"/><rect fill="none" height="6" style="stroke:#C82930;stroke-width:1.0;" width="6" x="138" y="353"/><text fill="#000000" font-family="sans-serif" font-size="11" lengthAdjust="spacing" textLength="69" x="150" y="360.4189">nombre: string</text><rect fill="none" height="6" style="stroke:#C82930;stroke-width:1.0;" width="6" x="138" y="366.8359"/><text fill="#000000" font-family="sans-serif" font-size="11" lengthAdjust="spacing" textLength="223" x="150" y="374.2549">materiales[CANT_MATERIALES_EDIFICIOS]: int</text><rect fill="none" height="6" style="stroke:#C82930;stroke-width:1.0;" width="6" x="138" y="380.6719"/><text fill="#000000" font-family="sans-serif" font-size="11" lengthAdjust="spacing" textLength="108" x="150" y="388.0908">maximo_permitidos: int</text><rect fill="none" height="6" style="stroke:#C82930;stroke-width:1.0;" width="6" x="138" y="394.5078"/><text fill="#000000" font-family="sans-serif" font-size="11" lengthAdjust="spacing" textLength="74" x="150" y="401.9268">construidos: int</text><line style="stroke:#A80036;stroke-width:1.5;" x1="131" x2="580" y1="408.3438" y2="408.3438"/><ellipse cx="141" cy="419.3438" fill="#84BE84" rx="3" ry="3" style="stroke:#038048;stroke-width:1.0;"/><text fill="#000000" font-family="sans-serif" font-size="11" lengthAdjust="spacing" textLength="425" x="150" y="423.7627">Edificio(nombre: string, piedra: int, madera: int, metal: int, maximo_permitidos: int): Edificio</text><ellipse cx="141" cy="433.1797" fill="#84BE84" rx="3" ry="3" style="stroke:#038048;stroke-width:1.0;"/><text fill="#000000" font-family="sans-serif" font-size="11" font-style="italic" lengthAdjust="spacing" textLength="68" x="150" y="437.5986">saludar():void</text><ellipse cx="141" cy="447.0156" fill="#84BE84" rx="3" ry="3" style="stroke:#038048;stroke-width:1.0;"/><text fill="#000000" font-family="sans-serif" font-size="11" font-style="italic" lengthAdjust="spacing" textLength="138" x="150" y="451.4346">producir_material():Material</text><!--MD5=[f0268dd29ee89052933f031546cb1cab]
class Menu--><rect codeLine="37" fill="#FEFECE" filter="url(#f11up1d0kfn90q)" height="283.2109" id="Menu" style="stroke:#A80036;stroke-width:1.5;" width="228" x="1245.5" y="244"/><ellipse cx="1340.25" cy="260" fill="#ADD1B2" rx="11" ry="11" style="stroke:#A80036;stroke-width:1.0;"/><path d="M1343.0156,255.875 Q1343.1719,255.6563 1343.3594,255.5469 Q1343.5469,255.4375 1343.7656,255.4375 Q1344.1406,255.4375 1344.375,255.6953 Q1344.6094,255.9531 1344.6094,256.5625 L1344.6094,258.0156 Q1344.6094,258.625 1344.375,258.8906 Q1344.1406,259.1563 1343.7656,259.1563 Q1343.4219,259.1563 1343.2188,258.9531 Q1343.0156,258.7656 1342.9063,258.25 Q1342.8594,257.8906 1342.6719,257.7031 Q1342.3438,257.3281 1341.7344,257.1094 Q1341.125,256.8906 1340.5,256.8906 Q1339.7344,256.8906 1339.1016,257.2188 Q1338.4688,257.5469 1337.9766,258.2969 Q1337.4844,259.0469 1337.4844,260.0781 L1337.4844,261.1719 Q1337.4844,262.4063 1338.375,263.2266 Q1339.2656,264.0469 1340.8594,264.0469 Q1341.7969,264.0469 1342.4531,263.7969 Q1342.8438,263.6406 1343.2656,263.2031 Q1343.5313,262.9375 1343.6797,262.8594 Q1343.8281,262.7813 1344.0313,262.7813 Q1344.3594,262.7813 1344.6172,263.0391 Q1344.875,263.2969 1344.875,263.6406 Q1344.875,263.9844 1344.5313,264.3906 Q1344.0313,264.9688 1343.2344,265.2969 Q1342.1563,265.75 1340.8594,265.75 Q1339.3438,265.75 1338.1406,265.125 Q1337.1563,264.625 1336.4688,263.5547 Q1335.7813,262.4844 1335.7813,261.2031 L1335.7813,260.0469 Q1335.7813,258.7188 1336.3984,257.5703 Q1337.0156,256.4219 1338.1094,255.8047 Q1339.2031,255.1875 1340.4375,255.1875 Q1341.1719,255.1875 1341.8203,255.3516 Q1342.4688,255.5156 1343.0156,255.875 Z " fill="#000000"/><text fill="#000000" font-family="sans-serif" font-size="12" lengthAdjust="spacing" textLength="30" x="1360.75" y="264.9102">Menu</text><line style="stroke:#A80036;stroke-width:1.5;" x1="1246.5" x2="1472.5" y1="276" y2="276"/><line style="stroke:#A80036;stroke-width:1.5;" x1="1246.5" x2="1472.5" y1="284" y2="284"/><ellipse cx="1256.5" cy="295" fill="#84BE84" rx="3" ry="3" style="stroke:#038048;stroke-width:1.0;"/><text fill="#000000" font-family="sans-serif" font-size="11" lengthAdjust="spacing" textLength="133" x="1265.5" y="299.4189">mostrar_menu_inicio(): void</text><ellipse cx="1256.5" cy="308.8359" fill="#84BE84" rx="3" ry="3" style="stroke:#038048;stroke-width:1.0;"/><text fill="#000000" font-family="sans-serif" font-size="11" lengthAdjust="spacing" textLength="103" x="1265.5" y="313.2549">mostrar_menu(): void</text><text fill="#000000" font-family="sans-serif" font-size="11" lengthAdjust="spacing" textLength="0" x="1268.5" y="327.0908"/><ellipse cx="1256.5" cy="336.5078" fill="#84BE84" rx="3" ry="3" style="stroke:#038048;stroke-width:1.0;"/><text fill="#000000" font-family="sans-serif" font-size="11" lengthAdjust="spacing" textLength="202" x="1265.5" y="340.9268">procesar_opcion(int opcion_elegida): bool</text><ellipse cx="1256.5" cy="350.3438" fill="#84BE84" rx="3" ry="3" style="stroke:#038048;stroke-width:1.0;"/><text fill="#000000" font-family="sans-serif" font-size="11" lengthAdjust="spacing" textLength="180" x="1265.5" y="354.7627">es_opcion_valida(string opcion): bool</text><ellipse cx="1256.5" cy="364.1797" fill="#84BE84" rx="3" ry="3" style="stroke:#038048;stroke-width:1.0;"/><text fill="#000000" font-family="sans-serif" font-size="11" lengthAdjust="spacing" textLength="107" x="1265.5" y="368.5986">limpiar_pantalla(): void</text><text fill="#000000" font-family="sans-serif" font-size="11" lengthAdjust="spacing" textLength="0" x="1268.5" y="382.4346"/><rect fill="#F24D5C" height="6" style="stroke:#C82930;stroke-width:1.0;" width="6" x="1253.5" y="388.8516"/><text fill="#000000" font-family="sans-serif" font-size="11" lengthAdjust="spacing" textLength="117" x="1265.5" y="396.2705">construir_edificio(): void</text><rect fill="#F24D5C" height="6" style="stroke:#C82930;stroke-width:1.0;" width="6" x="1253.5" y="402.6875"/><text fill="#000000" font-family="sans-serif" font-size="11" lengthAdjust="spacing" textLength="112" x="1265.5" y="410.1064">demoler_edificio(): void</text><rect fill="#F24D5C" height="6" style="stroke:#C82930;stroke-width:1.0;" width="6" x="1253.5" y="416.5234"/><text fill="#000000" font-family="sans-serif" font-size="11" lengthAdjust="spacing" textLength="117" x="1265.5" y="423.9424">mostrar_edificios(): void</text><rect fill="#F24D5C" height="6" style="stroke:#C82930;stroke-width:1.0;" width="6" x="1253.5" y="430.3594"/><text fill="#000000" font-family="sans-serif" font-size="11" lengthAdjust="spacing" textLength="126" x="1265.5" y="437.7783">mostrar_materiales(): void</text><rect fill="#F24D5C" height="6" style="stroke:#C82930;stroke-width:1.0;" width="6" x="1253.5" y="444.1953"/><text fill="#000000" font-family="sans-serif" font-size="11" lengthAdjust="spacing" textLength="103" x="1265.5" y="451.6143">mostrar_mapa(): void</text><rect fill="#F24D5C" height="6" style="stroke:#C82930;stroke-width:1.0;" width="6" x="1253.5" y="458.0313"/><text fill="#000000" font-family="sans-serif" font-size="11" lengthAdjust="spacing" textLength="135" x="1265.5" y="465.4502">mostrar_coordenada(): void</text><rect fill="#F24D5C" height="6" style="stroke:#C82930;stroke-width:1.0;" width="6" x="1253.5" y="471.8672"/><text fill="#000000" font-family="sans-serif" font-size="11" lengthAdjust="spacing" textLength="134" x="1265.5" y="479.2861">mostrar_construidos(): void</text><rect fill="#F24D5C" height="6" style="stroke:#C82930;stroke-width:1.0;" width="6" x="1253.5" y="485.7031"/><text fill="#000000" font-family="sans-serif" font-size="11" lengthAdjust="spacing" textLength="124" x="1265.5" y="493.1221">producir_recursos(): void</text><rect fill="#F24D5C" height="6" style="stroke:#C82930;stroke-width:1.0;" width="6" x="1253.5" y="499.5391"/><text fill="#000000" font-family="sans-serif" font-size="11" lengthAdjust="spacing" textLength="126" x="1265.5" y="506.958">lluvia_de_recursos(): void</text><rect fill="#F24D5C" height="6" style="stroke:#C82930;stroke-width:1.0;" width="6" x="1253.5" y="513.375"/><text fill="#000000" font-family="sans-serif" font-size="11" lengthAdjust="spacing" textLength="119" x="1265.5" y="520.7939">vaciar_materiales(): void</text><!--MD5=[cb7c223346bfebd549082440377a13ce]
class Programa--><rect codeLine="57" fill="#FEFECE" filter="url(#f11up1d0kfn90q)" height="158.6875" id="Programa" style="stroke:#A80036;stroke-width:1.5;" width="369" x="1175" y="7"/><ellipse cx="1327.75" cy="23" fill="#ADD1B2" rx="11" ry="11" style="stroke:#A80036;stroke-width:1.0;"/><path d="M1330.5156,18.875 Q1330.6719,18.6563 1330.8594,18.5469 Q1331.0469,18.4375 1331.2656,18.4375 Q1331.6406,18.4375 1331.875,18.6953 Q1332.1094,18.9531 1332.1094,19.5625 L1332.1094,21.0156 Q1332.1094,21.625 1331.875,21.8906 Q1331.6406,22.1563 1331.2656,22.1563 Q1330.9219,22.1563 1330.7188,21.9531 Q1330.5156,21.7656 1330.4063,21.25 Q1330.3594,20.8906 1330.1719,20.7031 Q1329.8438,20.3281 1329.2344,20.1094 Q1328.625,19.8906 1328,19.8906 Q1327.2344,19.8906 1326.6016,20.2188 Q1325.9688,20.5469 1325.4766,21.2969 Q1324.9844,22.0469 1324.9844,23.0781 L1324.9844,24.1719 Q1324.9844,25.4063 1325.875,26.2266 Q1326.7656,27.0469 1328.3594,27.0469 Q1329.2969,27.0469 1329.9531,26.7969 Q1330.3438,26.6406 1330.7656,26.2031 Q1331.0313,25.9375 1331.1797,25.8594 Q1331.3281,25.7813 1331.5313,25.7813 Q1331.8594,25.7813 1332.1172,26.0391 Q1332.375,26.2969 1332.375,26.6406 Q1332.375,26.9844 1332.0313,27.3906 Q1331.5313,27.9688 1330.7344,28.2969 Q1329.6563,28.75 1328.3594,28.75 Q1326.8438,28.75 1325.6406,28.125 Q1324.6563,27.625 1323.9688,26.5547 Q1323.2813,25.4844 1323.2813,24.2031 L1323.2813,23.0469 Q1323.2813,21.7188 1323.8984,20.5703 Q1324.5156,19.4219 1325.6094,18.8047 Q1326.7031,18.1875 1327.9375,18.1875 Q1328.6719,18.1875 1329.3203,18.3516 Q1329.9688,18.5156 1330.5156,18.875 Z " fill="#000000"/><text fill="#000000" font-family="sans-serif" font-size="12" lengthAdjust="spacing" textLength="55" x="1348.25" y="27.9102">Programa</text><line style="stroke:#A80036;stroke-width:1.5;" x1="1176" x2="1543" y1="39" y2="39"/><rect fill="none" height="6" style="stroke:#C82930;stroke-width:1.0;" width="6" x="1183" y="47"/><text fill="#000000" font-family="sans-serif" font-size="11" lengthAdjust="spacing" textLength="137" x="1195" y="54.4189">planos: Diccionario&lt;Edificio&gt;</text><rect fill="none" height="6" style="stroke:#C82930;stroke-width:1.0;" width="6" x="1183" y="60.8359"/><text fill="#000000" font-family="sans-serif" font-size="11" lengthAdjust="spacing" textLength="121" x="1195" y="68.2549">estado: ESTADO_JUEGO</text><line style="stroke:#A80036;stroke-width:1.5;" x1="1176" x2="1543" y1="74.6719" y2="74.6719"/><ellipse cx="1186" cy="85.6719" fill="#84BE84" rx="3" ry="3" style="stroke:#038048;stroke-width:1.0;"/><text fill="#000000" font-family="sans-serif" font-size="11" lengthAdjust="spacing" textLength="47" x="1195" y="90.0908">init(): void</text><ellipse cx="1186" cy="99.5078" fill="#84BE84" rx="3" ry="3" style="stroke:#038048;stroke-width:1.0;"/><text fill="#000000" font-family="sans-serif" font-size="11" lengthAdjust="spacing" textLength="50" x="1195" y="103.9268">run(): void</text><ellipse cx="1186" cy="113.3438" fill="#84BE84" rx="3" ry="3" style="stroke:#038048;stroke-width:1.0;"/><text fill="#000000" font-family="sans-serif" font-size="11" lengthAdjust="spacing" textLength="51" x="1195" y="117.7627">exit(): void</text><text fill="#000000" font-family="sans-serif" font-size="11" lengthAdjust="spacing" textLength="0" x="1198" y="131.5986"/><rect fill="#F24D5C" height="6" style="stroke:#C82930;stroke-width:1.0;" width="6" x="1183" y="138.0156"/><text fill="#000000" font-family="sans-serif" font-size="11" lengthAdjust="spacing" textLength="337" x="1195" y="145.4346">cargar_archivos(string ruta_materiales, string ruta_ubicaciones): void</text><rect fill="#F24D5C" height="6" style="stroke:#C82930;stroke-width:1.0;" width="6" x="1183" y="151.8516"/><text fill="#000000" font-family="sans-serif" font-size="11" lengthAdjust="spacing" textLength="343" x="1195" y="159.2705">guardar_archivos(string ruta_materiales, string ruta_ubicaciones): void</text><!--MD5=[3858b4c47ad31b7fe669860596063bee]
class Mapa--><rect codeLine="70" fill="#FEFECE" filter="url(#f11up1d0kfn90q)" height="75.6719" id="Mapa" style="stroke:#A80036;stroke-width:1.5;" width="128" x="1508.5" y="347.5"/><ellipse cx="1553.25" cy="363.5" fill="#ADD1B2" rx="11" ry="11" style="stroke:#A80036;stroke-width:1.0;"/><path d="M1556.0156,359.375 Q1556.1719,359.1563 1556.3594,359.0469 Q1556.5469,358.9375 1556.7656,358.9375 Q1557.1406,358.9375 1557.375,359.1953 Q1557.6094,359.4531 1557.6094,360.0625 L1557.6094,361.5156 Q1557.6094,362.125 1557.375,362.3906 Q1557.1406,362.6563 1556.7656,362.6563 Q1556.4219,362.6563 1556.2188,362.4531 Q1556.0156,362.2656 1555.9063,361.75 Q1555.8594,361.3906 1555.6719,361.2031 Q1555.3438,360.8281 1554.7344,360.6094 Q1554.125,360.3906 1553.5,360.3906 Q1552.7344,360.3906 1552.1016,360.7188 Q1551.4688,361.0469 1550.9766,361.7969 Q1550.4844,362.5469 1550.4844,363.5781 L1550.4844,364.6719 Q1550.4844,365.9063 1551.375,366.7266 Q1552.2656,367.5469 1553.8594,367.5469 Q1554.7969,367.5469 1555.4531,367.2969 Q1555.8438,367.1406 1556.2656,366.7031 Q1556.5313,366.4375 1556.6797,366.3594 Q1556.8281,366.2813 1557.0313,366.2813 Q1557.3594,366.2813 1557.6172,366.5391 Q1557.875,366.7969 1557.875,367.1406 Q1557.875,367.4844 1557.5313,367.8906 Q1557.0313,368.4688 1556.2344,368.7969 Q1555.1563,369.25 1553.8594,369.25 Q1552.3438,369.25 1551.1406,368.625 Q1550.1563,368.125 1549.4688,367.0547 Q1548.7813,365.9844 1548.7813,364.7031 L1548.7813,363.5469 Q1548.7813,362.2188 1549.3984,361.0703 Q1550.0156,359.9219 1551.1094,359.3047 Q1552.2031,358.6875 1553.4375,358.6875 Q1554.1719,358.6875 1554.8203,358.8516 Q1555.4688,359.0156 1556.0156,359.375 Z " fill="#000000"/><text fill="#000000" font-family="sans-serif" font-size="12" lengthAdjust="spacing" textLength="30" x="1573.75" y="368.4102">Mapa</text><line style="stroke:#A80036;stroke-width:1.5;" x1="1509.5" x2="1635.5" y1="379.5" y2="379.5"/><rect fill="none" height="6" style="stroke:#C82930;stroke-width:1.0;" width="6" x="1516.5" y="387.5"/><text fill="#000000" font-family="sans-serif" font-size="11" lengthAdjust="spacing" textLength="76" x="1528.5" y="394.9189">filas: std::size_t</text><rect fill="none" height="6" style="stroke:#C82930;stroke-width:1.0;" width="6" x="1516.5" y="401.3359"/><text fill="#000000" font-family="sans-serif" font-size="11" lengthAdjust="spacing" textLength="102" x="1528.5" y="408.7549">columnas: std::size_t</text><line style="stroke:#A80036;stroke-width:1.5;" x1="1509.5" x2="1635.5" y1="415.1719" y2="415.1719"/><!--MD5=[90d32ccc189f11441a6ce7cbb63ad387]
class Material--><rect codeLine="75" fill="#FEFECE" filter="url(#f11up1d0kfn90q)" height="48" id="Material" style="stroke:#A80036;stroke-width:1.5;" width="75" x="852" y="800"/><ellipse cx="867" cy="816" fill="#ADD1B2" rx="11" ry="11" style="stroke:#A80036;stroke-width:1.0;"/><path d="M869.7656,811.875 Q869.9219,811.6563 870.1094,811.5469 Q870.2969,811.4375 870.5156,811.4375 Q870.8906,811.4375 871.125,811.6953 Q871.3594,811.9531 871.3594,812.5625 L871.3594,814.0156 Q871.3594,814.625 871.125,814.8906 Q870.8906,815.1563 870.5156,815.1563 Q870.1719,815.1563 869.9688,814.9531 Q869.7656,814.7656 869.6563,814.25 Q869.6094,813.8906 869.4219,813.7031 Q869.0938,813.3281 868.4844,813.1094 Q867.875,812.8906 867.25,812.8906 Q866.4844,812.8906 865.8516,813.2188 Q865.2188,813.5469 864.7266,814.2969 Q864.2344,815.0469 864.2344,816.0781 L864.2344,817.1719 Q864.2344,818.4063 865.125,819.2266 Q866.0156,820.0469 867.6094,820.0469 Q868.5469,820.0469 869.2031,819.7969 Q869.5938,819.6406 870.0156,819.2031 Q870.2813,818.9375 870.4297,818.8594 Q870.5781,818.7813 870.7813,818.7813 Q871.1094,818.7813 871.3672,819.0391 Q871.625,819.2969 871.625,819.6406 Q871.625,819.9844 871.2813,820.3906 Q870.7813,820.9688 869.9844,821.2969 Q868.9063,821.75 867.6094,821.75 Q866.0938,821.75 864.8906,821.125 Q863.9063,820.625 863.2188,819.5547 Q862.5313,818.4844 862.5313,817.2031 L862.5313,816.0469 Q862.5313,814.7188 863.1484,813.5703 Q863.7656,812.4219 864.8594,811.8047 Q865.9531,811.1875 867.1875,811.1875 Q867.9219,811.1875 868.5703,811.3516 Q869.2188,811.5156 869.7656,811.875 Z " fill="#000000"/><text fill="#000000" font-family="sans-serif" font-size="12" lengthAdjust="spacing" textLength="43" x="881" y="820.9102">Material</text><line style="stroke:#A80036;stroke-width:1.5;" x1="853" x2="926" y1="832" y2="832"/><line style="stroke:#A80036;stroke-width:1.5;" x1="853" x2="926" y1="840" y2="840"/><!--MD5=[41d36d5b64ff1ad3ad8cd8035ff73d0f]
class Productor--><rect codeLine="79" fill="#FEFECE" filter="url(#f11up1d0kfn90q)" height="103.3438" id="Productor" style="stroke:#A80036;stroke-width:1.5;" width="160" x="348.5" y="612"/><ellipse cx="397.75" cy="628" fill="#A9DCDF" rx="11" ry="11" style="stroke:#A80036;stroke-width:1.0;"/><path d="M399.9375,629.7656 L395.7969,629.7656 L395.375,630.7969 L395.7969,630.7969 Q396.4063,630.7969 396.6719,631.0313 Q396.9375,631.2656 396.9375,631.6563 Q396.9375,632.0313 396.6719,632.2656 Q396.4063,632.5 395.7969,632.5 L393.5,632.5 Q392.8906,632.5 392.6328,632.2656 Q392.375,632.0313 392.375,631.6406 Q392.375,631.2656 392.6484,631.0234 Q392.9219,630.7813 393.5469,630.7969 L396.2188,624.1406 L395.1094,624.1406 Q394.5,624.1406 394.2344,623.9063 Q393.9688,623.6719 393.9688,623.2813 Q393.9688,622.9063 394.2344,622.6719 Q394.5,622.4375 395.1094,622.4375 L398.7813,622.4375 L402.1719,630.7969 Q402.7656,630.7969 402.9531,630.9375 Q403.3438,631.2031 403.3438,631.6563 Q403.3438,632.0313 403.0859,632.2656 Q402.8281,632.5 402.2188,632.5 L399.9219,632.5 Q399.3125,632.5 399.0469,632.2656 Q398.7813,632.0313 398.7813,631.6406 Q398.7813,631.2656 399.0469,631.0313 Q399.3125,630.7969 399.9219,630.7969 L400.3438,630.7969 L399.9375,629.7656 Z M399.2188,628.0625 L397.8594,624.6875 L396.4844,628.0625 L399.2188,628.0625 Z " fill="#000000"/><text fill="#000000" font-family="sans-serif" font-size="12" font-style="italic" lengthAdjust="spacing" textLength="53" x="418.25" y="632.9102">Productor</text><line style="stroke:#A80036;stroke-width:1.5;" x1="349.5" x2="507.5" y1="644" y2="644"/><rect fill="none" height="6" style="stroke:#C82930;stroke-width:1.0;" width="6" x="356.5" y="652"/><text fill="#000000" font-family="sans-serif" font-size="11" lengthAdjust="spacing" textLength="37" x="368.5" y="659.4189">vida: int</text><line style="stroke:#A80036;stroke-width:1.5;" x1="349.5" x2="507.5" y1="665.8359" y2="665.8359"/><ellipse cx="359.5" cy="676.8359" fill="#84BE84" rx="3" ry="3" style="stroke:#038048;stroke-width:1.0;"/><text fill="#000000" font-family="sans-serif" font-size="11" lengthAdjust="spacing" textLength="108" x="368.5" y="681.2549">info_producto(): string</text><ellipse cx="359.5" cy="690.6719" fill="#84BE84" rx="3" ry="3" style="stroke:#038048;stroke-width:1.0;"/><text fill="#000000" font-family="sans-serif" font-size="11" lengthAdjust="spacing" textLength="134" x="368.5" y="695.0908">producir_material(): Material</text><ellipse cx="359.5" cy="704.5078" fill="#84BE84" rx="3" ry="3" style="stroke:#038048;stroke-width:1.0;"/><text fill="#000000" font-family="sans-serif" font-size="11" font-style="italic" lengthAdjust="spacing" textLength="70" x="368.5" y="708.9268">reparar(): void</text><!--MD5=[2a4c77a0dfc4426e08d9db04ddb6b544]
class NoProductor--><rect codeLine="86" fill="#FEFECE" filter="url(#f11up1d0kfn90q)" height="75.6719" id="NoProductor" style="stroke:#A80036;stroke-width:1.5;" width="155" x="97" y="625.5"/><ellipse cx="136.3" cy="641.5" fill="#ADD1B2" rx="11" ry="11" style="stroke:#A80036;stroke-width:1.0;"/><path d="M139.0656,637.375 Q139.2219,637.1563 139.4094,637.0469 Q139.5969,636.9375 139.8156,636.9375 Q140.1906,636.9375 140.425,637.1953 Q140.6594,637.4531 140.6594,638.0625 L140.6594,639.5156 Q140.6594,640.125 140.425,640.3906 Q140.1906,640.6563 139.8156,640.6563 Q139.4719,640.6563 139.2688,640.4531 Q139.0656,640.2656 138.9563,639.75 Q138.9094,639.3906 138.7219,639.2031 Q138.3938,638.8281 137.7844,638.6094 Q137.175,638.3906 136.55,638.3906 Q135.7844,638.3906 135.1516,638.7188 Q134.5188,639.0469 134.0266,639.7969 Q133.5344,640.5469 133.5344,641.5781 L133.5344,642.6719 Q133.5344,643.9063 134.425,644.7266 Q135.3156,645.5469 136.9094,645.5469 Q137.8469,645.5469 138.5031,645.2969 Q138.8938,645.1406 139.3156,644.7031 Q139.5813,644.4375 139.7297,644.3594 Q139.8781,644.2813 140.0813,644.2813 Q140.4094,644.2813 140.6672,644.5391 Q140.925,644.7969 140.925,645.1406 Q140.925,645.4844 140.5813,645.8906 Q140.0813,646.4688 139.2844,646.7969 Q138.2063,647.25 136.9094,647.25 Q135.3938,647.25 134.1906,646.625 Q133.2063,646.125 132.5188,645.0547 Q131.8313,643.9844 131.8313,642.7031 L131.8313,641.5469 Q131.8313,640.2188 132.4484,639.0703 Q133.0656,637.9219 134.1594,637.3047 Q135.2531,636.6875 136.4875,636.6875 Q137.2219,636.6875 137.8703,636.8516 Q138.5188,637.0156 139.0656,637.375 Z " fill="#000000"/><text fill="#000000" font-family="sans-serif" font-size="12" lengthAdjust="spacing" textLength="69" x="155.7" y="646.4102">NoProductor</text><line style="stroke:#A80036;stroke-width:1.5;" x1="98" x2="251" y1="657.5" y2="657.5"/><line style="stroke:#A80036;stroke-width:1.5;" x1="98" x2="251" y1="665.5" y2="665.5"/><ellipse cx="108" cy="676.5" fill="#84BE84" rx="3" ry="3" style="stroke:#038048;stroke-width:1.0;"/><text fill="#000000" font-family="sans-serif" font-size="11" lengthAdjust="spacing" textLength="67" x="117" y="680.9189">saludar():void</text><ellipse cx="108" cy="690.3359" fill="#84BE84" rx="3" ry="3" style="stroke:#038048;stroke-width:1.0;"/><text fill="#000000" font-family="sans-serif" font-size="11" lengthAdjust="spacing" textLength="129" x="117" y="694.7549">producir_material():Materia</text><!--MD5=[e570de1d41a3b8125e1c820568fd7a6a]
class Jugador--><rect codeLine="92" fill="#FEFECE" filter="url(#f11up1d0kfn90q)" height="75.6719" id="Jugador" style="stroke:#A80036;stroke-width:1.5;" width="232" x="978.5" y="347.5"/><ellipse cx="1067.75" cy="363.5" fill="#A9DCDF" rx="11" ry="11" style="stroke:#A80036;stroke-width:1.0;"/><path d="M1069.9375,365.2656 L1065.7969,365.2656 L1065.375,366.2969 L1065.7969,366.2969 Q1066.4063,366.2969 1066.6719,366.5313 Q1066.9375,366.7656 1066.9375,367.1563 Q1066.9375,367.5313 1066.6719,367.7656 Q1066.4063,368 1065.7969,368 L1063.5,368 Q1062.8906,368 1062.6328,367.7656 Q1062.375,367.5313 1062.375,367.1406 Q1062.375,366.7656 1062.6484,366.5234 Q1062.9219,366.2813 1063.5469,366.2969 L1066.2188,359.6406 L1065.1094,359.6406 Q1064.5,359.6406 1064.2344,359.4063 Q1063.9688,359.1719 1063.9688,358.7813 Q1063.9688,358.4063 1064.2344,358.1719 Q1064.5,357.9375 1065.1094,357.9375 L1068.7813,357.9375 L1072.1719,366.2969 Q1072.7656,366.2969 1072.9531,366.4375 Q1073.3438,366.7031 1073.3438,367.1563 Q1073.3438,367.5313 1073.0859,367.7656 Q1072.8281,368 1072.2188,368 L1069.9219,368 Q1069.3125,368 1069.0469,367.7656 Q1068.7813,367.5313 1068.7813,367.1406 Q1068.7813,366.7656 1069.0469,366.5313 Q1069.3125,366.2969 1069.9219,366.2969 L1070.3438,366.2969 L1069.9375,365.2656 Z M1069.2188,363.5625 L1067.8594,360.1875 L1066.4844,363.5625 L1069.2188,363.5625 Z " fill="#000000"/><text fill="#000000" font-family="sans-serif" font-size="12" font-style="italic" lengthAdjust="spacing" textLength="45" x="1088.25" y="368.4102">Jugador</text><line style="stroke:#A80036;stroke-width:1.5;" x1="979.5" x2="1209.5" y1="379.5" y2="379.5"/><line style="stroke:#A80036;stroke-width:1.5;" x1="979.5" x2="1209.5" y1="387.5" y2="387.5"/><ellipse cx="989.5" cy="398.5" fill="#84BE84" rx="3" ry="3" style="stroke:#038048;stroke-width:1.0;"/><text fill="#000000" font-family="sans-serif" font-size="11" font-style="italic" lengthAdjust="spacing" textLength="206" x="998.5" y="402.9189">mover(destino: Coordenada, mapa :Mapa)</text><rect fill="#F24D5C" height="6" style="stroke:#C82930;stroke-width:1.0;" width="6" x="986.5" y="409.3359"/><text fill="#000000" font-family="sans-serif" font-size="11" lengthAdjust="spacing" textLength="100" x="998.5" y="416.7549">recolectar(): Material</text><!--MD5=[628cc5a2753cca06eb1ffef55c386535]
class Parser--><rect codeLine="97" fill="#FEFECE" filter="url(#f11up1d0kfn90q)" height="48" id="Parser" style="stroke:#A80036;stroke-width:1.5;" width="69" x="1916" y="62.5"/><ellipse cx="1931" cy="78.5" fill="#ADD1B2" rx="11" ry="11" style="stroke:#A80036;stroke-width:1.0;"/><path d="M1933.7656,74.375 Q1933.9219,74.1563 1934.1094,74.0469 Q1934.2969,73.9375 1934.5156,73.9375 Q1934.8906,73.9375 1935.125,74.1953 Q1935.3594,74.4531 1935.3594,75.0625 L1935.3594,76.5156 Q1935.3594,77.125 1935.125,77.3906 Q1934.8906,77.6563 1934.5156,77.6563 Q1934.1719,77.6563 1933.9688,77.4531 Q1933.7656,77.2656 1933.6563,76.75 Q1933.6094,76.3906 1933.4219,76.2031 Q1933.0938,75.8281 1932.4844,75.6094 Q1931.875,75.3906 1931.25,75.3906 Q1930.4844,75.3906 1929.8516,75.7188 Q1929.2188,76.0469 1928.7266,76.7969 Q1928.2344,77.5469 1928.2344,78.5781 L1928.2344,79.6719 Q1928.2344,80.9063 1929.125,81.7266 Q1930.0156,82.5469 1931.6094,82.5469 Q1932.5469,82.5469 1933.2031,82.2969 Q1933.5938,82.1406 1934.0156,81.7031 Q1934.2813,81.4375 1934.4297,81.3594 Q1934.5781,81.2813 1934.7813,81.2813 Q1935.1094,81.2813 1935.3672,81.5391 Q1935.625,81.7969 1935.625,82.1406 Q1935.625,82.4844 1935.2813,82.8906 Q1934.7813,83.4688 1933.9844,83.7969 Q1932.9063,84.25 1931.6094,84.25 Q1930.0938,84.25 1928.8906,83.625 Q1927.9063,83.125 1927.2188,82.0547 Q1926.5313,80.9844 1926.5313,79.7031 L1926.5313,78.5469 Q1926.5313,77.2188 1927.1484,76.0703 Q1927.7656,74.9219 1928.8594,74.3047 Q1929.9531,73.6875 1931.1875,73.6875 Q1931.9219,73.6875 1932.5703,73.8516 Q1933.2188,74.0156 1933.7656,74.375 Z " fill="#000000"/><text fill="#000000" font-family="sans-serif" font-size="12" lengthAdjust="spacing" textLength="37" x="1945" y="83.4102">Parser</text><line style="stroke:#A80036;stroke-width:1.5;" x1="1917" x2="1984" y1="94.5" y2="94.5"/><line style="stroke:#A80036;stroke-width:1.5;" x1="1917" x2="1984" y1="102.5" y2="102.5"/><!--MD5=[fe83d7d7fe323ee11b616bb1a611bbfa]
class ParserEdificio--><rect codeLine="98" fill="#FEFECE" filter="url(#f11up1d0kfn90q)" height="48" id="ParserEdificio" style="stroke:#A80036;stroke-width:1.5;" width="109" x="1672" y="361.5"/><ellipse cx="1687" cy="377.5" fill="#ADD1B2" rx="11" ry="11" style="stroke:#A80036;stroke-width:1.0;"/><path d="M1689.7656,373.375 Q1689.9219,373.1563 1690.1094,373.0469 Q1690.2969,372.9375 1690.5156,372.9375 Q1690.8906,372.9375 1691.125,373.1953 Q1691.3594,373.4531 1691.3594,374.0625 L1691.3594,375.5156 Q1691.3594,376.125 1691.125,376.3906 Q1690.8906,376.6563 1690.5156,376.6563 Q1690.1719,376.6563 1689.9688,376.4531 Q1689.7656,376.2656 1689.6563,375.75 Q1689.6094,375.3906 1689.4219,375.2031 Q1689.0938,374.8281 1688.4844,374.6094 Q1687.875,374.3906 1687.25,374.3906 Q1686.4844,374.3906 1685.8516,374.7188 Q1685.2188,375.0469 1684.7266,375.7969 Q1684.2344,376.5469 1684.2344,377.5781 L1684.2344,378.6719 Q1684.2344,379.9063 1685.125,380.7266 Q1686.0156,381.5469 1687.6094,381.5469 Q1688.5469,381.5469 1689.2031,381.2969 Q1689.5938,381.1406 1690.0156,380.7031 Q1690.2813,380.4375 1690.4297,380.3594 Q1690.5781,380.2813 1690.7813,380.2813 Q1691.1094,380.2813 1691.3672,380.5391 Q1691.625,380.7969 1691.625,381.1406 Q1691.625,381.4844 1691.2813,381.8906 Q1690.7813,382.4688 1689.9844,382.7969 Q1688.9063,383.25 1687.6094,383.25 Q1686.0938,383.25 1684.8906,382.625 Q1683.9063,382.125 1683.2188,381.0547 Q1682.5313,379.9844 1682.5313,378.7031 L1682.5313,377.5469 Q1682.5313,376.2188 1683.1484,375.0703 Q1683.7656,373.9219 1684.8594,373.3047 Q1685.9531,372.6875 1687.1875,372.6875 Q1687.9219,372.6875 1688.5703,372.8516 Q1689.2188,373.0156 1689.7656,373.375 Z " fill="#000000"/><text fill="#000000" font-family="sans-serif" font-size="12" lengthAdjust="spacing" textLength="77" x="1701" y="382.4102">ParserEdificio</text><line style="stroke:#A80036;stroke-width:1.5;" x1="1673" x2="1780" y1="393.5" y2="393.5"/><line style="stroke:#A80036;stroke-width:1.5;" x1="1673" x2="1780" y1="401.5" y2="401.5"/><!--MD5=[56c0e6f4f56a1849c23ae7de631f312d]
class ParserInventario--><rect codeLine="99" fill="#FEFECE" filter="url(#f11up1d0kfn90q)" height="48" id="ParserInventario" style="stroke:#A80036;stroke-width:1.5;" width="122" x="1816.5" y="361.5"/><ellipse cx="1831.5" cy="377.5" fill="#ADD1B2" rx="11" ry="11" style="stroke:#A80036;stroke-width:1.0;"/><path d="M1834.2656,373.375 Q1834.4219,373.1563 1834.6094,373.0469 Q1834.7969,372.9375 1835.0156,372.9375 Q1835.3906,372.9375 1835.625,373.1953 Q1835.8594,373.4531 1835.8594,374.0625 L1835.8594,375.5156 Q1835.8594,376.125 1835.625,376.3906 Q1835.3906,376.6563 1835.0156,376.6563 Q1834.6719,376.6563 1834.4688,376.4531 Q1834.2656,376.2656 1834.1563,375.75 Q1834.1094,375.3906 1833.9219,375.2031 Q1833.5938,374.8281 1832.9844,374.6094 Q1832.375,374.3906 1831.75,374.3906 Q1830.9844,374.3906 1830.3516,374.7188 Q1829.7188,375.0469 1829.2266,375.7969 Q1828.7344,376.5469 1828.7344,377.5781 L1828.7344,378.6719 Q1828.7344,379.9063 1829.625,380.7266 Q1830.5156,381.5469 1832.1094,381.5469 Q1833.0469,381.5469 1833.7031,381.2969 Q1834.0938,381.1406 1834.5156,380.7031 Q1834.7813,380.4375 1834.9297,380.3594 Q1835.0781,380.2813 1835.2813,380.2813 Q1835.6094,380.2813 1835.8672,380.5391 Q1836.125,380.7969 1836.125,381.1406 Q1836.125,381.4844 1835.7813,381.8906 Q1835.2813,382.4688 1834.4844,382.7969 Q1833.4063,383.25 1832.1094,383.25 Q1830.5938,383.25 1829.3906,382.625 Q1828.4063,382.125 1827.7188,381.0547 Q1827.0313,379.9844 1827.0313,378.7031 L1827.0313,377.5469 Q1827.0313,376.2188 1827.6484,375.0703 Q1828.2656,373.9219 1829.3594,373.3047 Q1830.4531,372.6875 1831.6875,372.6875 Q1832.4219,372.6875 1833.0703,372.8516 Q1833.7188,373.0156 1834.2656,373.375 Z " fill="#000000"/><text fill="#000000" font-family="sans-serif" font-size="12" lengthAdjust="spacing" textLength="90" x="1845.5" y="382.4102">ParserInventario</text><line style="stroke:#A80036;stroke-width:1.5;" x1="1817.5" x2="1937.5" y1="393.5" y2="393.5"/><line style="stroke:#A80036;stroke-width:1.5;" x1="1817.5" x2="1937.5" y1="401.5" y2="401.5"/><!--MD5=[7d4a5e6f5ce412764d7ec4c82ebeb0c6]
class ParserMapa--><rect codeLine="100" fill="#FEFECE" filter="url(#f11up1d0kfn90q)" height="48" id="ParserMapa" style="stroke:#A80036;stroke-width:1.5;" width="99" x="1974" y="361.5"/><ellipse cx="1989" cy="377.5" fill="#ADD1B2" rx="11" ry="11" style="stroke:#A80036;stroke-width:1.0;"/><path d="M1991.7656,373.375 Q1991.9219,373.1563 1992.1094,373.0469 Q1992.2969,372.9375 1992.5156,372.9375 Q1992.8906,372.9375 1993.125,373.1953 Q1993.3594,373.4531 1993.3594,374.0625 L1993.3594,375.5156 Q1993.3594,376.125 1993.125,376.3906 Q1992.8906,376.6563 1992.5156,376.6563 Q1992.1719,376.6563 1991.9688,376.4531 Q1991.7656,376.2656 1991.6563,375.75 Q1991.6094,375.3906 1991.4219,375.2031 Q1991.0938,374.8281 1990.4844,374.6094 Q1989.875,374.3906 1989.25,374.3906 Q1988.4844,374.3906 1987.8516,374.7188 Q1987.2188,375.0469 1986.7266,375.7969 Q1986.2344,376.5469 1986.2344,377.5781 L1986.2344,378.6719 Q1986.2344,379.9063 1987.125,380.7266 Q1988.0156,381.5469 1989.6094,381.5469 Q1990.5469,381.5469 1991.2031,381.2969 Q1991.5938,381.1406 1992.0156,380.7031 Q1992.2813,380.4375 1992.4297,380.3594 Q1992.5781,380.2813 1992.7813,380.2813 Q1993.1094,380.2813 1993.3672,380.5391 Q1993.625,380.7969 1993.625,381.1406 Q1993.625,381.4844 1993.2813,381.8906 Q1992.7813,382.4688 1991.9844,382.7969 Q1990.9063,383.25 1989.6094,383.25 Q1988.0938,383.25 1986.8906,382.625 Q1985.9063,382.125 1985.2188,381.0547 Q1984.5313,379.9844 1984.5313,378.7031 L1984.5313,377.5469 Q1984.5313,376.2188 1985.1484,375.0703 Q1985.7656,373.9219 1986.8594,373.3047 Q1987.9531,372.6875 1989.1875,372.6875 Q1989.9219,372.6875 1990.5703,372.8516 Q1991.2188,373.0156 1991.7656,373.375 Z " fill="#000000"/><text fill="#000000" font-family="sans-serif" font-size="12" lengthAdjust="spacing" textLength="67" x="2003" y="382.4102">ParserMapa</text><line style="stroke:#A80036;stroke-width:1.5;" x1="1975" x2="2072" y1="393.5" y2="393.5"/><line style="stroke:#A80036;stroke-width:1.5;" x1="1975" x2="2072" y1="401.5" y2="401.5"/><!--MD5=[7bca4b094e44566f8b7bdd6c29d0c943]
class ParserUbicacion--><rect codeLine="101" fill="#FEFECE" filter="url(#f11up1d0kfn90q)" height="48" id="ParserUbicacion" style="stroke:#A80036;stroke-width:1.5;" width="124" x="2108.5" y="361.5"/><ellipse cx="2123.5" cy="377.5" fill="#ADD1B2" rx="11" ry="11" style="stroke:#A80036;stroke-width:1.0;"/><path d="M2126.2656,373.375 Q2126.4219,373.1563 2126.6094,373.0469 Q2126.7969,372.9375 2127.0156,372.9375 Q2127.3906,372.9375 2127.625,373.1953 Q2127.8594,373.4531 2127.8594,374.0625 L2127.8594,375.5156 Q2127.8594,376.125 2127.625,376.3906 Q2127.3906,376.6563 2127.0156,376.6563 Q2126.6719,376.6563 2126.4688,376.4531 Q2126.2656,376.2656 2126.1563,375.75 Q2126.1094,375.3906 2125.9219,375.2031 Q2125.5938,374.8281 2124.9844,374.6094 Q2124.375,374.3906 2123.75,374.3906 Q2122.9844,374.3906 2122.3516,374.7188 Q2121.7188,375.0469 2121.2266,375.7969 Q2120.7344,376.5469 2120.7344,377.5781 L2120.7344,378.6719 Q2120.7344,379.9063 2121.625,380.7266 Q2122.5156,381.5469 2124.1094,381.5469 Q2125.0469,381.5469 2125.7031,381.2969 Q2126.0938,381.1406 2126.5156,380.7031 Q2126.7813,380.4375 2126.9297,380.3594 Q2127.0781,380.2813 2127.2813,380.2813 Q2127.6094,380.2813 2127.8672,380.5391 Q2128.125,380.7969 2128.125,381.1406 Q2128.125,381.4844 2127.7813,381.8906 Q2127.2813,382.4688 2126.4844,382.7969 Q2125.4063,383.25 2124.1094,383.25 Q2122.5938,383.25 2121.3906,382.625 Q2120.4063,382.125 2119.7188,381.0547 Q2119.0313,379.9844 2119.0313,378.7031 L2119.0313,377.5469 Q2119.0313,376.2188 2119.6484,375.0703 Q2120.2656,373.9219 2121.3594,373.3047 Q2122.4531,372.6875 2123.6875,372.6875 Q2124.4219,372.6875 2125.0703,372.8516 Q2125.7188,373.0156 2126.2656,373.375 Z " fill="#000000"/><text fill="#000000" font-family="sans-serif" font-size="12" lengthAdjust="spacing" textLength="92" x="2137.5" y="382.4102">ParserUbicacion</text><line style="stroke:#A80036;stroke-width:1.5;" x1="2109.5" x2="2231.5" y1="393.5" y2="393.5"/><line style="stroke:#A80036;stroke-width:1.5;" x1="2109.5" x2="2231.5" y1="401.5" y2="401.5"/><!--MD5=[b593feabc473cd2571fa456d9ef36f60]
class CasilleroConstruible--><rect fill="#FEFECE" filter="url(#f11up1d0kfn90q)" height="48" id="CasilleroConstruible" style="stroke:#A80036;stroke-width:1.5;" width="146" x="1319.5" y="800"/><ellipse cx="1334.5" cy="816" fill="#ADD1B2" rx="11" ry="11" style="stroke:#A80036;stroke-width:1.0;"/><path d="M1337.2656,811.875 Q1337.4219,811.6563 1337.6094,811.5469 Q1337.7969,811.4375 1338.0156,811.4375 Q1338.3906,811.4375 1338.625,811.6953 Q1338.8594,811.9531 1338.8594,812.5625 L1338.8594,814.0156 Q1338.8594,814.625 1338.625,814.8906 Q1338.3906,815.1563 1338.0156,815.1563 Q1337.6719,815.1563 1337.4688,814.9531 Q1337.2656,814.7656 1337.1563,814.25 Q1337.1094,813.8906 1336.9219,813.7031 Q1336.5938,813.3281 1335.9844,813.1094 Q1335.375,812.8906 1334.75,812.8906 Q1333.9844,812.8906 1333.3516,813.2188 Q1332.7188,813.5469 1332.2266,814.2969 Q1331.7344,815.0469 1331.7344,816.0781 L1331.7344,817.1719 Q1331.7344,818.4063 1332.625,819.2266 Q1333.5156,820.0469 1335.1094,820.0469 Q1336.0469,820.0469 1336.7031,819.7969 Q1337.0938,819.6406 1337.5156,819.2031 Q1337.7813,818.9375 1337.9297,818.8594 Q1338.0781,818.7813 1338.2813,818.7813 Q1338.6094,818.7813 1338.8672,819.0391 Q1339.125,819.2969 1339.125,819.6406 Q1339.125,819.9844 1338.7813,820.3906 Q1338.2813,820.9688 1337.4844,821.2969 Q1336.4063,821.75 1335.1094,821.75 Q1333.5938,821.75 1332.3906,821.125 Q1331.4063,820.625 1330.7188,819.5547 Q1330.0313,818.4844 1330.0313,817.2031 L1330.0313,816.0469 Q1330.0313,814.7188 1330.6484,813.5703 Q1331.2656,812.4219 1332.3594,811.8047 Q1333.4531,811.1875 1334.6875,811.1875 Q1335.4219,811.1875 1336.0703,811.3516 Q1336.7188,811.5156 1337.2656,811.875 Z " fill="#000000"/><text fill="#000000" font-family="sans-serif" font-size="12" lengthAdjust="spacing" textLength="114" x="1348.5" y="820.9102">CasilleroConstruible</text><line style="stroke:#A80036;stroke-width:1.5;" x1="1320.5" x2="1464.5" y1="832" y2="832"/><line style="stroke:#A80036;stroke-width:1.5;" x1="1320.5" x2="1464.5" y1="840" y2="840"/><!--MD5=[569ebc6b6a282e2760caab31738b263f]
class CasilleroTransitable--><rect fill="#FEFECE" filter="url(#f11up1d0kfn90q)" height="48" id="CasilleroTransitable" style="stroke:#A80036;stroke-width:1.5;" width="144" x="1500.5" y="800"/><ellipse cx="1515.5" cy="816" fill="#ADD1B2" rx="11" ry="11" style="stroke:#A80036;stroke-width:1.0;"/><path d="M1518.2656,811.875 Q1518.4219,811.6563 1518.6094,811.5469 Q1518.7969,811.4375 1519.0156,811.4375 Q1519.3906,811.4375 1519.625,811.6953 Q1519.8594,811.9531 1519.8594,812.5625 L1519.8594,814.0156 Q1519.8594,814.625 1519.625,814.8906 Q1519.3906,815.1563 1519.0156,815.1563 Q1518.6719,815.1563 1518.4688,814.9531 Q1518.2656,814.7656 1518.1563,814.25 Q1518.1094,813.8906 1517.9219,813.7031 Q1517.5938,813.3281 1516.9844,813.1094 Q1516.375,812.8906 1515.75,812.8906 Q1514.9844,812.8906 1514.3516,813.2188 Q1513.7188,813.5469 1513.2266,814.2969 Q1512.7344,815.0469 1512.7344,816.0781 L1512.7344,817.1719 Q1512.7344,818.4063 1513.625,819.2266 Q1514.5156,820.0469 1516.1094,820.0469 Q1517.0469,820.0469 1517.7031,819.7969 Q1518.0938,819.6406 1518.5156,819.2031 Q1518.7813,818.9375 1518.9297,818.8594 Q1519.0781,818.7813 1519.2813,818.7813 Q1519.6094,818.7813 1519.8672,819.0391 Q1520.125,819.2969 1520.125,819.6406 Q1520.125,819.9844 1519.7813,820.3906 Q1519.2813,820.9688 1518.4844,821.2969 Q1517.4063,821.75 1516.1094,821.75 Q1514.5938,821.75 1513.3906,821.125 Q1512.4063,820.625 1511.7188,819.5547 Q1511.0313,818.4844 1511.0313,817.2031 L1511.0313,816.0469 Q1511.0313,814.7188 1511.6484,813.5703 Q1512.2656,812.4219 1513.3594,811.8047 Q1514.4531,811.1875 1515.6875,811.1875 Q1516.4219,811.1875 1517.0703,811.3516 Q1517.7188,811.5156 1518.2656,811.875 Z " fill="#000000"/><text fill="#000000" font-family="sans-serif" font-size="12" lengthAdjust="spacing" textLength="112" x="1529.5" y="820.9102">CasilleroTransitable</text><line style="stroke:#A80036;stroke-width:1.5;" x1="1501.5" x2="1643.5" y1="832" y2="832"/><line style="stroke:#A80036;stroke-width:1.5;" x1="1501.5" x2="1643.5" y1="840" y2="840"/><!--MD5=[699feec579ce9e117b563610a6d840e8]
class CasilleroInaccesible--><rect fill="#FEFECE" filter="url(#f11up1d0kfn90q)" height="48" id="CasilleroInaccesible" style="stroke:#A80036;stroke-width:1.5;" width="145" x="1680" y="800"/><ellipse cx="1695" cy="816" fill="#ADD1B2" rx="11" ry="11" style="stroke:#A80036;stroke-width:1.0;"/><path d="M1697.7656,811.875 Q1697.9219,811.6563 1698.1094,811.5469 Q1698.2969,811.4375 1698.5156,811.4375 Q1698.8906,811.4375 1699.125,811.6953 Q1699.3594,811.9531 1699.3594,812.5625 L1699.3594,814.0156 Q1699.3594,814.625 1699.125,814.8906 Q1698.8906,815.1563 1698.5156,815.1563 Q1698.1719,815.1563 1697.9688,814.9531 Q1697.7656,814.7656 1697.6563,814.25 Q1697.6094,813.8906 1697.4219,813.7031 Q1697.0938,813.3281 1696.4844,813.1094 Q1695.875,812.8906 1695.25,812.8906 Q1694.4844,812.8906 1693.8516,813.2188 Q1693.2188,813.5469 1692.7266,814.2969 Q1692.2344,815.0469 1692.2344,816.0781 L1692.2344,817.1719 Q1692.2344,818.4063 1693.125,819.2266 Q1694.0156,820.0469 1695.6094,820.0469 Q1696.5469,820.0469 1697.2031,819.7969 Q1697.5938,819.6406 1698.0156,819.2031 Q1698.2813,818.9375 1698.4297,818.8594 Q1698.5781,818.7813 1698.7813,818.7813 Q1699.1094,818.7813 1699.3672,819.0391 Q1699.625,819.2969 1699.625,819.6406 Q1699.625,819.9844 1699.2813,820.3906 Q1698.7813,820.9688 1697.9844,821.2969 Q1696.9063,821.75 1695.6094,821.75 Q1694.0938,821.75 1692.8906,821.125 Q1691.9063,820.625 1691.2188,819.5547 Q1690.5313,818.4844 1690.5313,817.2031 L1690.5313,816.0469 Q1690.5313,814.7188 1691.1484,813.5703 Q1691.7656,812.4219 1692.8594,811.8047 Q1693.9531,811.1875 1695.1875,811.1875 Q1695.9219,811.1875 1696.5703,811.3516 Q1697.2188,811.5156 1697.7656,811.875 Z " fill="#000000"/><text fill="#000000" font-family="sans-serif" font-size="12" lengthAdjust="spacing" textLength="113" x="1709" y="820.9102">CasilleroInaccesible</text><line style="stroke:#A80036;stroke-width:1.5;" x1="1681" x2="1824" y1="832" y2="832"/><line style="stroke:#A80036;stroke-width:1.5;" x1="1681" x2="1824" y1="840" y2="840"/><!--MD5=[c7473d3d529d3f2a60b8db1125673ca3]
class Camino--><rect fill="#FEFECE" filter="url(#f11up1d0kfn90q)" height="48" id="Camino" style="stroke:#A80036;stroke-width:1.5;" width="76" x="1429.5" y="909"/><ellipse cx="1444.5" cy="925" fill="#ADD1B2" rx="11" ry="11" style="stroke:#A80036;stroke-width:1.0;"/><path d="M1447.2656,920.875 Q1447.4219,920.6563 1447.6094,920.5469 Q1447.7969,920.4375 1448.0156,920.4375 Q1448.3906,920.4375 1448.625,920.6953 Q1448.8594,920.9531 1448.8594,921.5625 L1448.8594,923.0156 Q1448.8594,923.625 1448.625,923.8906 Q1448.3906,924.1563 1448.0156,924.1563 Q1447.6719,924.1563 1447.4688,923.9531 Q1447.2656,923.7656 1447.1563,923.25 Q1447.1094,922.8906 1446.9219,922.7031 Q1446.5938,922.3281 1445.9844,922.1094 Q1445.375,921.8906 1444.75,921.8906 Q1443.9844,921.8906 1443.3516,922.2188 Q1442.7188,922.5469 1442.2266,923.2969 Q1441.7344,924.0469 1441.7344,925.0781 L1441.7344,926.1719 Q1441.7344,927.4063 1442.625,928.2266 Q1443.5156,929.0469 1445.1094,929.0469 Q1446.0469,929.0469 1446.7031,928.7969 Q1447.0938,928.6406 1447.5156,928.2031 Q1447.7813,927.9375 1447.9297,927.8594 Q1448.0781,927.7813 1448.2813,927.7813 Q1448.6094,927.7813 1448.8672,928.0391 Q1449.125,928.2969 1449.125,928.6406 Q1449.125,928.9844 1448.7813,929.3906 Q1448.2813,929.9688 1447.4844,930.2969 Q1446.4063,930.75 1445.1094,930.75 Q1443.5938,930.75 1442.3906,930.125 Q1441.4063,929.625 1440.7188,928.5547 Q1440.0313,927.4844 1440.0313,926.2031 L1440.0313,925.0469 Q1440.0313,923.7188 1440.6484,922.5703 Q1441.2656,921.4219 1442.3594,920.8047 Q1443.4531,920.1875 1444.6875,920.1875 Q1445.4219,920.1875 1446.0703,920.3516 Q1446.7188,920.5156 1447.2656,920.875 Z " fill="#000000"/><text fill="#000000" font-family="sans-serif" font-size="12" lengthAdjust="spacing" textLength="44" x="1458.5" y="929.9102">Camino</text><line style="stroke:#A80036;stroke-width:1.5;" x1="1430.5" x2="1504.5" y1="941" y2="941"/><line style="stroke:#A80036;stroke-width:1.5;" x1="1430.5" x2="1504.5" y1="949" y2="949"/><!--MD5=[4e0b43fb40f6bf13452a578800c11169]
class Betun--><rect fill="#FEFECE" filter="url(#f11up1d0kfn90q)" height="48" id="Betun" style="stroke:#A80036;stroke-width:1.5;" width="64" x="1540.5" y="909"/><ellipse cx="1555.5" cy="925" fill="#ADD1B2" rx="11" ry="11" style="stroke:#A80036;stroke-width:1.0;"/><path d="M1558.2656,920.875 Q1558.4219,920.6563 1558.6094,920.5469 Q1558.7969,920.4375 1559.0156,920.4375 Q1559.3906,920.4375 1559.625,920.6953 Q1559.8594,920.9531 1559.8594,921.5625 L1559.8594,923.0156 Q1559.8594,923.625 1559.625,923.8906 Q1559.3906,924.1563 1559.0156,924.1563 Q1558.6719,924.1563 1558.4688,923.9531 Q1558.2656,923.7656 1558.1563,923.25 Q1558.1094,922.8906 1557.9219,922.7031 Q1557.5938,922.3281 1556.9844,922.1094 Q1556.375,921.8906 1555.75,921.8906 Q1554.9844,921.8906 1554.3516,922.2188 Q1553.7188,922.5469 1553.2266,923.2969 Q1552.7344,924.0469 1552.7344,925.0781 L1552.7344,926.1719 Q1552.7344,927.4063 1553.625,928.2266 Q1554.5156,929.0469 1556.1094,929.0469 Q1557.0469,929.0469 1557.7031,928.7969 Q1558.0938,928.6406 1558.5156,928.2031 Q1558.7813,927.9375 1558.9297,927.8594 Q1559.0781,927.7813 1559.2813,927.7813 Q1559.6094,927.7813 1559.8672,928.0391 Q1560.125,928.2969 1560.125,928.6406 Q1560.125,928.9844 1559.7813,929.3906 Q1559.2813,929.9688 1558.4844,930.2969 Q1557.4063,930.75 1556.1094,930.75 Q1554.5938,930.75 1553.3906,930.125 Q1552.4063,929.625 1551.7188,928.5547 Q1551.0313,927.4844 1551.0313,926.2031 L1551.0313,925.0469 Q1551.0313,923.7188 1551.6484,922.5703 Q1552.2656,921.4219 1553.3594,920.8047 Q1554.4531,920.1875 1555.6875,920.1875 Q1556.4219,920.1875 1557.0703,920.3516 Q1557.7188,920.5156 1558.2656,920.875 Z " fill="#000000"/><text fill="#000000" font-family="sans-serif" font-size="12" lengthAdjust="spacing" textLength="32" x="1569.5" y="929.9102">Betun</text><line style="stroke:#A80036;stroke-width:1.5;" x1="1541.5" x2="1603.5" y1="941" y2="941"/><line style="stroke:#A80036;stroke-width:1.5;" x1="1541.5" x2="1603.5" y1="949" y2="949"/><!--MD5=[a23b7b737d34f3185c7c3d8d5f738a59]
class Muelle--><rect fill="#FEFECE" filter="url(#f11up1d0kfn90q)" height="48" id="Muelle" style="stroke:#A80036;stroke-width:1.5;" width="68" x="1639.5" y="909"/><ellipse cx="1654.5" cy="925" fill="#ADD1B2" rx="11" ry="11" style="stroke:#A80036;stroke-width:1.0;"/><path d="M1657.2656,920.875 Q1657.4219,920.6563 1657.6094,920.5469 Q1657.7969,920.4375 1658.0156,920.4375 Q1658.3906,920.4375 1658.625,920.6953 Q1658.8594,920.9531 1658.8594,921.5625 L1658.8594,923.0156 Q1658.8594,923.625 1658.625,923.8906 Q1658.3906,924.1563 1658.0156,924.1563 Q1657.6719,924.1563 1657.4688,923.9531 Q1657.2656,923.7656 1657.1563,923.25 Q1657.1094,922.8906 1656.9219,922.7031 Q1656.5938,922.3281 1655.9844,922.1094 Q1655.375,921.8906 1654.75,921.8906 Q1653.9844,921.8906 1653.3516,922.2188 Q1652.7188,922.5469 1652.2266,923.2969 Q1651.7344,924.0469 1651.7344,925.0781 L1651.7344,926.1719 Q1651.7344,927.4063 1652.625,928.2266 Q1653.5156,929.0469 1655.1094,929.0469 Q1656.0469,929.0469 1656.7031,928.7969 Q1657.0938,928.6406 1657.5156,928.2031 Q1657.7813,927.9375 1657.9297,927.8594 Q1658.0781,927.7813 1658.2813,927.7813 Q1658.6094,927.7813 1658.8672,928.0391 Q1659.125,928.2969 1659.125,928.6406 Q1659.125,928.9844 1658.7813,929.3906 Q1658.2813,929.9688 1657.4844,930.2969 Q1656.4063,930.75 1655.1094,930.75 Q1653.5938,930.75 1652.3906,930.125 Q1651.4063,929.625 1650.7188,928.5547 Q1650.0313,927.4844 1650.0313,926.2031 L1650.0313,925.0469 Q1650.0313,923.7188 1650.6484,922.5703 Q1651.2656,921.4219 1652.3594,920.8047 Q1653.4531,920.1875 1654.6875,920.1875 Q1655.4219,920.1875 1656.0703,920.3516 Q1656.7188,920.5156 1657.2656,920.875 Z " fill="#000000"/><text fill="#000000" font-family="sans-serif" font-size="12" lengthAdjust="spacing" textLength="36" x="1668.5" y="929.9102">Muelle</text><line style="stroke:#A80036;stroke-width:1.5;" x1="1640.5" x2="1706.5" y1="941" y2="941"/><line style="stroke:#A80036;stroke-width:1.5;" x1="1640.5" x2="1706.5" y1="949" y2="949"/><!--MD5=[8b156cfe5b162c2a217f8ea5400be331]
class Obelisco--><rect fill="#FEFECE" filter="url(#f11up1d0kfn90q)" height="48" id="Obelisco" style="stroke:#A80036;stroke-width:1.5;" width="81" x="7" y="800"/><ellipse cx="22" cy="816" fill="#ADD1B2" rx="11" ry="11" style="stroke:#A80036;stroke-width:1.0;"/><path d="M24.7656,811.875 Q24.9219,811.6563 25.1094,811.5469 Q25.2969,811.4375 25.5156,811.4375 Q25.8906,811.4375 26.125,811.6953 Q26.3594,811.9531 26.3594,812.5625 L26.3594,814.0156 Q26.3594,814.625 26.125,814.8906 Q25.8906,815.1563 25.5156,815.1563 Q25.1719,815.1563 24.9688,814.9531 Q24.7656,814.7656 24.6563,814.25 Q24.6094,813.8906 24.4219,813.7031 Q24.0938,813.3281 23.4844,813.1094 Q22.875,812.8906 22.25,812.8906 Q21.4844,812.8906 20.8516,813.2188 Q20.2188,813.5469 19.7266,814.2969 Q19.2344,815.0469 19.2344,816.0781 L19.2344,817.1719 Q19.2344,818.4063 20.125,819.2266 Q21.0156,820.0469 22.6094,820.0469 Q23.5469,820.0469 24.2031,819.7969 Q24.5938,819.6406 25.0156,819.2031 Q25.2813,818.9375 25.4297,818.8594 Q25.5781,818.7813 25.7813,818.7813 Q26.1094,818.7813 26.3672,819.0391 Q26.625,819.2969 26.625,819.6406 Q26.625,819.9844 26.2813,820.3906 Q25.7813,820.9688 24.9844,821.2969 Q23.9063,821.75 22.6094,821.75 Q21.0938,821.75 19.8906,821.125 Q18.9063,820.625 18.2188,819.5547 Q17.5313,818.4844 17.5313,817.2031 L17.5313,816.0469 Q17.5313,814.7188 18.1484,813.5703 Q18.7656,812.4219 19.8594,811.8047 Q20.9531,811.1875 22.1875,811.1875 Q22.9219,811.1875 23.5703,811.3516 Q24.2188,811.5156 24.7656,811.875 Z " fill="#000000"/><text fill="#000000" font-family="sans-serif" font-size="12" lengthAdjust="spacing" textLength="49" x="36" y="820.9102">Obelisco</text><line style="stroke:#A80036;stroke-width:1.5;" x1="8" x2="87" y1="832" y2="832"/><line style="stroke:#A80036;stroke-width:1.5;" x1="8" x2="87" y1="840" y2="840"/><!--MD5=[c9307506c5e213b927507b764450f2da]
class Aserradero--><rect fill="#FEFECE" filter="url(#f11up1d0kfn90q)" height="48" id="Aserradero" style="stroke:#A80036;stroke-width:1.5;" width="93" x="587" y="800"/><ellipse cx="602" cy="816" fill="#ADD1B2" rx="11" ry="11" style="stroke:#A80036;stroke-width:1.0;"/><path d="M604.7656,811.875 Q604.9219,811.6563 605.1094,811.5469 Q605.2969,811.4375 605.5156,811.4375 Q605.8906,811.4375 606.125,811.6953 Q606.3594,811.9531 606.3594,812.5625 L606.3594,814.0156 Q606.3594,814.625 606.125,814.8906 Q605.8906,815.1563 605.5156,815.1563 Q605.1719,815.1563 604.9688,814.9531 Q604.7656,814.7656 604.6563,814.25 Q604.6094,813.8906 604.4219,813.7031 Q604.0938,813.3281 603.4844,813.1094 Q602.875,812.8906 602.25,812.8906 Q601.4844,812.8906 600.8516,813.2188 Q600.2188,813.5469 599.7266,814.2969 Q599.2344,815.0469 599.2344,816.0781 L599.2344,817.1719 Q599.2344,818.4063 600.125,819.2266 Q601.0156,820.0469 602.6094,820.0469 Q603.5469,820.0469 604.2031,819.7969 Q604.5938,819.6406 605.0156,819.2031 Q605.2813,818.9375 605.4297,818.8594 Q605.5781,818.7813 605.7813,818.7813 Q606.1094,818.7813 606.3672,819.0391 Q606.625,819.2969 606.625,819.6406 Q606.625,819.9844 606.2813,820.3906 Q605.7813,820.9688 604.9844,821.2969 Q603.9063,821.75 602.6094,821.75 Q601.0938,821.75 599.8906,821.125 Q598.9063,820.625 598.2188,819.5547 Q597.5313,818.4844 597.5313,817.2031 L597.5313,816.0469 Q597.5313,814.7188 598.1484,813.5703 Q598.7656,812.4219 599.8594,811.8047 Q600.9531,811.1875 602.1875,811.1875 Q602.9219,811.1875 603.5703,811.3516 Q604.2188,811.5156 604.7656,811.875 Z " fill="#000000"/><text fill="#000000" font-family="sans-serif" font-size="12" lengthAdjust="spacing" textLength="61" x="616" y="820.9102">Aserradero</text><line style="stroke:#A80036;stroke-width:1.5;" x1="588" x2="679" y1="832" y2="832"/><line style="stroke:#A80036;stroke-width:1.5;" x1="588" x2="679" y1="840" y2="840"/><!--MD5=[86c4f7bd37fbad40f3afffe9e45c8d23]
class Escuela--><rect fill="#FEFECE" filter="url(#f11up1d0kfn90q)" height="48" id="Escuela" style="stroke:#A80036;stroke-width:1.5;" width="77" x="715" y="800"/><ellipse cx="730" cy="816" fill="#ADD1B2" rx="11" ry="11" style="stroke:#A80036;stroke-width:1.0;"/><path d="M732.7656,811.875 Q732.9219,811.6563 733.1094,811.5469 Q733.2969,811.4375 733.5156,811.4375 Q733.8906,811.4375 734.125,811.6953 Q734.3594,811.9531 734.3594,812.5625 L734.3594,814.0156 Q734.3594,814.625 734.125,814.8906 Q733.8906,815.1563 733.5156,815.1563 Q733.1719,815.1563 732.9688,814.9531 Q732.7656,814.7656 732.6563,814.25 Q732.6094,813.8906 732.4219,813.7031 Q732.0938,813.3281 731.4844,813.1094 Q730.875,812.8906 730.25,812.8906 Q729.4844,812.8906 728.8516,813.2188 Q728.2188,813.5469 727.7266,814.2969 Q727.2344,815.0469 727.2344,816.0781 L727.2344,817.1719 Q727.2344,818.4063 728.125,819.2266 Q729.0156,820.0469 730.6094,820.0469 Q731.5469,820.0469 732.2031,819.7969 Q732.5938,819.6406 733.0156,819.2031 Q733.2813,818.9375 733.4297,818.8594 Q733.5781,818.7813 733.7813,818.7813 Q734.1094,818.7813 734.3672,819.0391 Q734.625,819.2969 734.625,819.6406 Q734.625,819.9844 734.2813,820.3906 Q733.7813,820.9688 732.9844,821.2969 Q731.9063,821.75 730.6094,821.75 Q729.0938,821.75 727.8906,821.125 Q726.9063,820.625 726.2188,819.5547 Q725.5313,818.4844 725.5313,817.2031 L725.5313,816.0469 Q725.5313,814.7188 726.1484,813.5703 Q726.7656,812.4219 727.8594,811.8047 Q728.9531,811.1875 730.1875,811.1875 Q730.9219,811.1875 731.5703,811.3516 Q732.2188,811.5156 732.7656,811.875 Z " fill="#000000"/><text fill="#000000" font-family="sans-serif" font-size="12" lengthAdjust="spacing" textLength="45" x="744" y="820.9102">Escuela</text><line style="stroke:#A80036;stroke-width:1.5;" x1="716" x2="791" y1="832" y2="832"/><line style="stroke:#A80036;stroke-width:1.5;" x1="716" x2="791" y1="840" y2="840"/><!--MD5=[ecffdbe4e7da77545a2a0146215f3a5c]
class Fabrica--><rect fill="#FEFECE" filter="url(#f11up1d0kfn90q)" height="48" id="Fabrica" style="stroke:#A80036;stroke-width:1.5;" width="73" x="123" y="800"/><ellipse cx="138" cy="816" fill="#ADD1B2" rx="11" ry="11" style="stroke:#A80036;stroke-width:1.0;"/><path d="M140.7656,811.875 Q140.9219,811.6563 141.1094,811.5469 Q141.2969,811.4375 141.5156,811.4375 Q141.8906,811.4375 142.125,811.6953 Q142.3594,811.9531 142.3594,812.5625 L142.3594,814.0156 Q142.3594,814.625 142.125,814.8906 Q141.8906,815.1563 141.5156,815.1563 Q141.1719,815.1563 140.9688,814.9531 Q140.7656,814.7656 140.6563,814.25 Q140.6094,813.8906 140.4219,813.7031 Q140.0938,813.3281 139.4844,813.1094 Q138.875,812.8906 138.25,812.8906 Q137.4844,812.8906 136.8516,813.2188 Q136.2188,813.5469 135.7266,814.2969 Q135.2344,815.0469 135.2344,816.0781 L135.2344,817.1719 Q135.2344,818.4063 136.125,819.2266 Q137.0156,820.0469 138.6094,820.0469 Q139.5469,820.0469 140.2031,819.7969 Q140.5938,819.6406 141.0156,819.2031 Q141.2813,818.9375 141.4297,818.8594 Q141.5781,818.7813 141.7813,818.7813 Q142.1094,818.7813 142.3672,819.0391 Q142.625,819.2969 142.625,819.6406 Q142.625,819.9844 142.2813,820.3906 Q141.7813,820.9688 140.9844,821.2969 Q139.9063,821.75 138.6094,821.75 Q137.0938,821.75 135.8906,821.125 Q134.9063,820.625 134.2188,819.5547 Q133.5313,818.4844 133.5313,817.2031 L133.5313,816.0469 Q133.5313,814.7188 134.1484,813.5703 Q134.7656,812.4219 135.8594,811.8047 Q136.9531,811.1875 138.1875,811.1875 Q138.9219,811.1875 139.5703,811.3516 Q140.2188,811.5156 140.7656,811.875 Z " fill="#000000"/><text fill="#000000" font-family="sans-serif" font-size="12" lengthAdjust="spacing" textLength="41" x="152" y="820.9102">Fabrica</text><line style="stroke:#A80036;stroke-width:1.5;" x1="124" x2="195" y1="832" y2="832"/><line style="stroke:#A80036;stroke-width:1.5;" x1="124" x2="195" y1="840" y2="840"/><!--MD5=[5619620362d161dc0d5478c675254e3f]
class Mina--><rect fill="#FEFECE" filter="url(#f11up1d0kfn90q)" height="48" id="Mina" style="stroke:#A80036;stroke-width:1.5;" width="58" x="231.5" y="800"/><ellipse cx="246.5" cy="816" fill="#ADD1B2" rx="11" ry="11" style="stroke:#A80036;stroke-width:1.0;"/><path d="M249.2656,811.875 Q249.4219,811.6563 249.6094,811.5469 Q249.7969,811.4375 250.0156,811.4375 Q250.3906,811.4375 250.625,811.6953 Q250.8594,811.9531 250.8594,812.5625 L250.8594,814.0156 Q250.8594,814.625 250.625,814.8906 Q250.3906,815.1563 250.0156,815.1563 Q249.6719,815.1563 249.4688,814.9531 Q249.2656,814.7656 249.1563,814.25 Q249.1094,813.8906 248.9219,813.7031 Q248.5938,813.3281 247.9844,813.1094 Q247.375,812.8906 246.75,812.8906 Q245.9844,812.8906 245.3516,813.2188 Q244.7188,813.5469 244.2266,814.2969 Q243.7344,815.0469 243.7344,816.0781 L243.7344,817.1719 Q243.7344,818.4063 244.625,819.2266 Q245.5156,820.0469 247.1094,820.0469 Q248.0469,820.0469 248.7031,819.7969 Q249.0938,819.6406 249.5156,819.2031 Q249.7813,818.9375 249.9297,818.8594 Q250.0781,818.7813 250.2813,818.7813 Q250.6094,818.7813 250.8672,819.0391 Q251.125,819.2969 251.125,819.6406 Q251.125,819.9844 250.7813,820.3906 Q250.2813,820.9688 249.4844,821.2969 Q248.4063,821.75 247.1094,821.75 Q245.5938,821.75 244.3906,821.125 Q243.4063,820.625 242.7188,819.5547 Q242.0313,818.4844 242.0313,817.2031 L242.0313,816.0469 Q242.0313,814.7188 242.6484,813.5703 Q243.2656,812.4219 244.3594,811.8047 Q245.4531,811.1875 246.6875,811.1875 Q247.4219,811.1875 248.0703,811.3516 Q248.7188,811.5156 249.2656,811.875 Z " fill="#000000"/><text fill="#000000" font-family="sans-serif" font-size="12" lengthAdjust="spacing" textLength="26" x="260.5" y="820.9102">Mina</text><line style="stroke:#A80036;stroke-width:1.5;" x1="232.5" x2="288.5" y1="832" y2="832"/><line style="stroke:#A80036;stroke-width:1.5;" x1="232.5" x2="288.5" y1="840" y2="840"/><!--MD5=[4ff6c97a8b2d4e7129d88c067f00b0a3]
class MinaOro--><rect fill="#FEFECE" filter="url(#f11up1d0kfn90q)" height="48" id="MinaOro" style="stroke:#A80036;stroke-width:1.5;" width="78" x="324.5" y="800"/><ellipse cx="339.5" cy="816" fill="#ADD1B2" rx="11" ry="11" style="stroke:#A80036;stroke-width:1.0;"/><path d="M342.2656,811.875 Q342.4219,811.6563 342.6094,811.5469 Q342.7969,811.4375 343.0156,811.4375 Q343.3906,811.4375 343.625,811.6953 Q343.8594,811.9531 343.8594,812.5625 L343.8594,814.0156 Q343.8594,814.625 343.625,814.8906 Q343.3906,815.1563 343.0156,815.1563 Q342.6719,815.1563 342.4688,814.9531 Q342.2656,814.7656 342.1563,814.25 Q342.1094,813.8906 341.9219,813.7031 Q341.5938,813.3281 340.9844,813.1094 Q340.375,812.8906 339.75,812.8906 Q338.9844,812.8906 338.3516,813.2188 Q337.7188,813.5469 337.2266,814.2969 Q336.7344,815.0469 336.7344,816.0781 L336.7344,817.1719 Q336.7344,818.4063 337.625,819.2266 Q338.5156,820.0469 340.1094,820.0469 Q341.0469,820.0469 341.7031,819.7969 Q342.0938,819.6406 342.5156,819.2031 Q342.7813,818.9375 342.9297,818.8594 Q343.0781,818.7813 343.2813,818.7813 Q343.6094,818.7813 343.8672,819.0391 Q344.125,819.2969 344.125,819.6406 Q344.125,819.9844 343.7813,820.3906 Q343.2813,820.9688 342.4844,821.2969 Q341.4063,821.75 340.1094,821.75 Q338.5938,821.75 337.3906,821.125 Q336.4063,820.625 335.7188,819.5547 Q335.0313,818.4844 335.0313,817.2031 L335.0313,816.0469 Q335.0313,814.7188 335.6484,813.5703 Q336.2656,812.4219 337.3594,811.8047 Q338.4531,811.1875 339.6875,811.1875 Q340.4219,811.1875 341.0703,811.3516 Q341.7188,811.5156 342.2656,811.875 Z " fill="#000000"/><text fill="#000000" font-family="sans-serif" font-size="12" lengthAdjust="spacing" textLength="46" x="353.5" y="820.9102">MinaOro</text><line style="stroke:#A80036;stroke-width:1.5;" x1="325.5" x2="401.5" y1="832" y2="832"/><line style="stroke:#A80036;stroke-width:1.5;" x1="325.5" x2="401.5" y1="840" y2="840"/><!--MD5=[fadee6fdc958c491abec2854f038b990]
class PlantaElectrica--><rect fill="#FEFECE" filter="url(#f11up1d0kfn90q)" height="48" id="PlantaElectrica" style="stroke:#A80036;stroke-width:1.5;" width="114" x="437.5" y="800"/><ellipse cx="452.5" cy="816" fill="#ADD1B2" rx="11" ry="11" style="stroke:#A80036;stroke-width:1.0;"/><path d="M455.2656,811.875 Q455.4219,811.6563 455.6094,811.5469 Q455.7969,811.4375 456.0156,811.4375 Q456.3906,811.4375 456.625,811.6953 Q456.8594,811.9531 456.8594,812.5625 L456.8594,814.0156 Q456.8594,814.625 456.625,814.8906 Q456.3906,815.1563 456.0156,815.1563 Q455.6719,815.1563 455.4688,814.9531 Q455.2656,814.7656 455.1563,814.25 Q455.1094,813.8906 454.9219,813.7031 Q454.5938,813.3281 453.9844,813.1094 Q453.375,812.8906 452.75,812.8906 Q451.9844,812.8906 451.3516,813.2188 Q450.7188,813.5469 450.2266,814.2969 Q449.7344,815.0469 449.7344,816.0781 L449.7344,817.1719 Q449.7344,818.4063 450.625,819.2266 Q451.5156,820.0469 453.1094,820.0469 Q454.0469,820.0469 454.7031,819.7969 Q455.0938,819.6406 455.5156,819.2031 Q455.7813,818.9375 455.9297,818.8594 Q456.0781,818.7813 456.2813,818.7813 Q456.6094,818.7813 456.8672,819.0391 Q457.125,819.2969 457.125,819.6406 Q457.125,819.9844 456.7813,820.3906 Q456.2813,820.9688 455.4844,821.2969 Q454.4063,821.75 453.1094,821.75 Q451.5938,821.75 450.3906,821.125 Q449.4063,820.625 448.7188,819.5547 Q448.0313,818.4844 448.0313,817.2031 L448.0313,816.0469 Q448.0313,814.7188 448.6484,813.5703 Q449.2656,812.4219 450.3594,811.8047 Q451.4531,811.1875 452.6875,811.1875 Q453.4219,811.1875 454.0703,811.3516 Q454.7188,811.5156 455.2656,811.875 Z " fill="#000000"/><text fill="#000000" font-family="sans-serif" font-size="12" lengthAdjust="spacing" textLength="82" x="466.5" y="820.9102">PlantaElectrica</text><line style="stroke:#A80036;stroke-width:1.5;" x1="438.5" x2="550.5" y1="832" y2="832"/><line style="stroke:#A80036;stroke-width:1.5;" x1="438.5" x2="550.5" y1="840" y2="840"/><!--MD5=[dc9b2dd5e8664edfa389fb70a056ac03]
class JugadorUno--><rect fill="#FEFECE" filter="url(#f11up1d0kfn90q)" height="48" id="JugadorUno" style="stroke:#A80036;stroke-width:1.5;" width="100" x="977.5" y="639.5"/><ellipse cx="992.5" cy="655.5" fill="#ADD1B2" rx="11" ry="11" style="stroke:#A80036;stroke-width:1.0;"/><path d="M995.2656,651.375 Q995.4219,651.1563 995.6094,651.0469 Q995.7969,650.9375 996.0156,650.9375 Q996.3906,650.9375 996.625,651.1953 Q996.8594,651.4531 996.8594,652.0625 L996.8594,653.5156 Q996.8594,654.125 996.625,654.3906 Q996.3906,654.6563 996.0156,654.6563 Q995.6719,654.6563 995.4688,654.4531 Q995.2656,654.2656 995.1563,653.75 Q995.1094,653.3906 994.9219,653.2031 Q994.5938,652.8281 993.9844,652.6094 Q993.375,652.3906 992.75,652.3906 Q991.9844,652.3906 991.3516,652.7188 Q990.7188,653.0469 990.2266,653.7969 Q989.7344,654.5469 989.7344,655.5781 L989.7344,656.6719 Q989.7344,657.9063 990.625,658.7266 Q991.5156,659.5469 993.1094,659.5469 Q994.0469,659.5469 994.7031,659.2969 Q995.0938,659.1406 995.5156,658.7031 Q995.7813,658.4375 995.9297,658.3594 Q996.0781,658.2813 996.2813,658.2813 Q996.6094,658.2813 996.8672,658.5391 Q997.125,658.7969 997.125,659.1406 Q997.125,659.4844 996.7813,659.8906 Q996.2813,660.4688 995.4844,660.7969 Q994.4063,661.25 993.1094,661.25 Q991.5938,661.25 990.3906,660.625 Q989.4063,660.125 988.7188,659.0547 Q988.0313,657.9844 988.0313,656.7031 L988.0313,655.5469 Q988.0313,654.2188 988.6484,653.0703 Q989.2656,651.9219 990.3594,651.3047 Q991.4531,650.6875 992.6875,650.6875 Q993.4219,650.6875 994.0703,650.8516 Q994.7188,651.0156 995.2656,651.375 Z " fill="#000000"/><text fill="#000000" font-family="sans-serif" font-size="12" lengthAdjust="spacing" textLength="68" x="1006.5" y="660.4102">JugadorUno</text><line style="stroke:#A80036;stroke-width:1.5;" x1="978.5" x2="1076.5" y1="671.5" y2="671.5"/><line style="stroke:#A80036;stroke-width:1.5;" x1="978.5" x2="1076.5" y1="679.5" y2="679.5"/><!--MD5=[cd68e11732fc2b6e3bd582c5b7bb27f9]
class JugadorDos--><rect fill="#FEFECE" filter="url(#f11up1d0kfn90q)" height="48" id="JugadorDos" style="stroke:#A80036;stroke-width:1.5;" width="100" x="1112.5" y="639.5"/><ellipse cx="1127.5" cy="655.5" fill="#ADD1B2" rx="11" ry="11" style="stroke:#A80036;stroke-width:1.0;"/><path d="M1130.2656,651.375 Q1130.4219,651.1563 1130.6094,651.0469 Q1130.7969,650.9375 1131.0156,650.9375 Q1131.3906,650.9375 1131.625,651.1953 Q1131.8594,651.4531 1131.8594,652.0625 L1131.8594,653.5156 Q1131.8594,654.125 1131.625,654.3906 Q1131.3906,654.6563 1131.0156,654.6563 Q1130.6719,654.6563 1130.4688,654.4531 Q1130.2656,654.2656 1130.1563,653.75 Q1130.1094,653.3906 1129.9219,653.2031 Q1129.5938,652.8281 1128.9844,652.6094 Q1128.375,652.3906 1127.75,652.3906 Q1126.9844,652.3906 1126.3516,652.7188 Q1125.7188,653.0469 1125.2266,653.7969 Q1124.7344,654.5469 1124.7344,655.5781 L1124.7344,656.6719 Q1124.7344,657.9063 1125.625,658.7266 Q1126.5156,659.5469 1128.1094,659.5469 Q1129.0469,659.5469 1129.7031,659.2969 Q1130.0938,659.1406 1130.5156,658.7031 Q1130.7813,658.4375 1130.9297,658.3594 Q1131.0781,658.2813 1131.2813,658.2813 Q1131.6094,658.2813 1131.8672,658.5391 Q1132.125,658.7969 1132.125,659.1406 Q1132.125,659.4844 1131.7813,659.8906 Q1131.2813,660.4688 1130.4844,660.7969 Q1129.4063,661.25 1128.1094,661.25 Q1126.5938,661.25 1125.3906,660.625 Q1124.4063,660.125 1123.7188,659.0547 Q1123.0313,657.9844 1123.0313,656.7031 L1123.0313,655.5469 Q1123.0313,654.2188 1123.6484,653.0703 Q1124.2656,651.9219 1125.3594,651.3047 Q1126.4531,650.6875 1127.6875,650.6875 Q1128.4219,650.6875 1129.0703,650.8516 Q1129.7188,651.0156 1130.2656,651.375 Z " fill="#000000"/><text fill="#000000" font-family="sans-serif" font-size="12" lengthAdjust="spacing" textLength="68" x="1141.5" y="660.4102">JugadorDos</text><line style="stroke:#A80036;stroke-width:1.5;" x1="1113.5" x2="1211.5" y1="671.5" y2="671.5"/><line style="stroke:#A80036;stroke-width:1.5;" x1="1113.5" x2="1211.5" y1="679.5" y2="679.5"/><!--MD5=[f357e421f374459a3a42b07bc1dca8c5]
reverse link Programa to Menu--><path codeLine="104" d="M1359.5,179.47 C1359.5,199.89 1359.5,221.99 1359.5,243.86 " fill="none" id="Programa-backto-Menu" style="stroke:#A80036;stroke-width:1.0;"/><polygon fill="#A80036" points="1359.5,166.31,1355.5,172.31,1359.5,178.31,1363.5,172.31,1359.5,166.31" style="stroke:#A80036;stroke-width:1.0;"/><rect fill="none" height="6" style="stroke:#C82930;stroke-width:1.0;" width="6" x="1362.5" y="202.6758"/><text fill="#000000" font-family="sans-serif" font-size="13" lengthAdjust="spacing" textLength="32" x="1372.5" y="210.4951">menu</text><!--MD5=[ded64c6d7ab35c70c5f5870d8c190747]
reverse link Programa to Mapa--><path codeLine="105" d="M1438.29,176.37 C1456.18,197.95 1474.58,221.35 1490.5,244 C1514.13,277.62 1537.39,318.41 1553.06,347.36 " fill="none" id="Programa-backto-Mapa" style="stroke:#A80036;stroke-width:1.0;"/><polygon fill="#A80036" points="1429.84,166.26,1430.6163,173.4292,1437.5326,175.47,1436.7563,168.3008,1429.84,166.26" style="stroke:#A80036;stroke-width:1.0;"/><rect fill="none" height="6" style="stroke:#C82930;stroke-width:1.0;" width="6" x="1470.5" y="202.6758"/><text fill="#000000" font-family="sans-serif" font-size="13" lengthAdjust="spacing" textLength="32" x="1480.5" y="210.4951">mapa</text><!--MD5=[8fcffe3006cf004f87174ce041154ea5]
reverse link Programa to Jugador--><path codeLine="106" d="M1280.46,176.08 C1229.43,233.27 1165.7,304.71 1127.64,347.35 " fill="none" id="Programa-backto-Jugador" style="stroke:#A80036;stroke-width:1.0;"/><polygon fill="#A80036" points="1289.18,166.31,1282.2005,168.123,1281.1896,175.2629,1288.1691,173.4499,1289.18,166.31" style="stroke:#A80036;stroke-width:1.0;"/><rect fill="none" height="6" style="stroke:#C82930;stroke-width:1.0;" width="6" x="1262.5" y="202.6758"/><text fill="#000000" font-family="sans-serif" font-size="13" lengthAdjust="spacing" textLength="56" x="1272.5" y="210.4951">jugadores</text><text fill="#000000" font-family="sans-serif" font-size="13" lengthAdjust="spacing" textLength="5" x="1128.0978" y="336.6852">*</text><!--MD5=[66fcb632eb87faf2b98e614e29e75c3f]
reverse link Almacen to Material--><path codeLine="107" d="M899.54,700.59 C897.04,731.09 893.53,773.85 891.39,799.92 " fill="none" id="Almacen-backto-Material" style="stroke:#A80036;stroke-width:1.0;"/><polygon fill="#A80036" points="900.61,687.55,896.1292,693.2,899.6211,699.5092,904.1019,693.8592,900.61,687.55" style="stroke:#A80036;stroke-width:1.0;"/><rect fill="none" height="6" style="stroke:#C82930;stroke-width:1.0;" width="6" x="898.5" y="758.6758"/><text fill="#000000" font-family="sans-serif" font-size="13" lengthAdjust="spacing" textLength="77" x="908.5" y="766.4951">lista_material</text><text fill="#000000" font-family="sans-serif" font-size="13" lengthAdjust="spacing" textLength="5" x="886.2337" y="789.2397">*</text><!--MD5=[9efdfdded83aceb3d00d95b8a88a3b51]
reverse link Mapa to Casillero--><path codeLine="108" d="M1572.5,437.02 C1572.5,484.4 1572.5,555.17 1572.5,604.76 " fill="none" id="Mapa-backto-Casillero" style="stroke:#A80036;stroke-width:1.0;"/><polygon fill="#A80036" points="1572.5,423.72,1568.5,429.72,1572.5,435.72,1576.5,429.72,1572.5,423.72" style="stroke:#A80036;stroke-width:1.0;"/><rect fill="none" height="6" style="stroke:#C82930;stroke-width:1.0;" width="6" x="1575.5" y="563.6758"/><text fill="#000000" font-family="sans-serif" font-size="13" lengthAdjust="spacing" textLength="40" x="1585.5" y="571.4951">terreno</text><text fill="#000000" font-family="sans-serif" font-size="13" lengthAdjust="spacing" textLength="5" x="1567.1953" y="594.1317">*</text><!--MD5=[136f691de8ad092eed7ce8e1c805d057]
reverse link Casillero to CasilleroConstruible--><path codeLine="110" d="M1491.71,735.64 C1465.39,758.81 1438.02,782.92 1418.71,799.92 " fill="none" id="Casillero-backto-CasilleroConstruible" style="stroke:#A80036;stroke-width:1.0;"/><polygon fill="none" points="1487.37,730.13,1507.01,722.17,1496.62,740.64,1487.37,730.13" style="stroke:#A80036;stroke-width:1.0;"/><!--MD5=[e096ef777daddd3f427aaf58c2c27801]
reverse link Casillero to CasilleroTransitable--><path codeLine="111" d="M1572.5,742.48 C1572.5,763.48 1572.5,784.59 1572.5,799.92 " fill="none" id="Casillero-backto-CasilleroTransitable" style="stroke:#A80036;stroke-width:1.0;"/><polygon fill="none" points="1565.5,742.17,1572.5,722.17,1579.5,742.17,1565.5,742.17" style="stroke:#A80036;stroke-width:1.0;"/><!--MD5=[3712b33f51dad352451b23bfb8c72322]
reverse link Casillero to CasilleroInaccesible--><path codeLine="112" d="M1653.29,735.64 C1679.61,758.81 1706.98,782.92 1726.29,799.92 " fill="none" id="Casillero-backto-CasilleroInaccesible" style="stroke:#A80036;stroke-width:1.0;"/><polygon fill="none" points="1648.38,740.64,1637.99,722.17,1657.63,730.13,1648.38,740.64" style="stroke:#A80036;stroke-width:1.0;"/><!--MD5=[1fb9800b8140d84df23f5385f118588e]
reverse link CasilleroTransitable to Camino--><path codeLine="114" d="M1535.47,862.74 C1520.39,878.1 1503.44,895.38 1490.24,908.83 " fill="none" id="CasilleroTransitable-backto-Camino" style="stroke:#A80036;stroke-width:1.0;"/><polygon fill="none" points="1530.71,857.59,1549.72,848.22,1540.7,867.4,1530.71,857.59" style="stroke:#A80036;stroke-width:1.0;"/><!--MD5=[ffd9c118c3dc9ea03244199f1fe44299]
reverse link CasilleroTransitable to Betun--><path codeLine="115" d="M1572.5,868.58 C1572.5,882.36 1572.5,897.06 1572.5,908.83 " fill="none" id="CasilleroTransitable-backto-Betun" style="stroke:#A80036;stroke-width:1.0;"/><polygon fill="none" points="1565.5,868.22,1572.5,848.22,1579.5,868.22,1565.5,868.22" style="stroke:#A80036;stroke-width:1.0;"/><!--MD5=[18bf285bb4b4b61cb3f3e1bbfaf3cd9c]
reverse link CasilleroTransitable to Muelle--><path codeLine="116" d="M1608.57,863.22 C1622.97,878.46 1639.06,895.52 1651.63,908.83 " fill="none" id="CasilleroTransitable-backto-Muelle" style="stroke:#A80036;stroke-width:1.0;"/><polygon fill="none" points="1603.05,867.57,1594.42,848.22,1613.23,857.96,1603.05,867.57" style="stroke:#A80036;stroke-width:1.0;"/><!--MD5=[199410a3f9ebe2929ab420290791c09c]
reverse link Edificio to Productor--><path codeLine="119" d="M379.67,477.88 C391.48,522.53 405.24,574.54 415.13,611.97 " fill="none" id="Edificio-backto-Productor" style="stroke:#A80036;stroke-width:1.0;"/><polygon fill="none" points="372.84,479.42,374.49,458.3,386.37,475.84,372.84,479.42" style="stroke:#A80036;stroke-width:1.0;"/><!--MD5=[c3132f8849237f1848387d3f264b51a3]
reverse link Edificio to NoProductor--><path codeLine="120" d="M297.4,475.09 C264.07,525.91 223.99,587.04 198.87,625.34 " fill="none" id="Edificio-backto-NoProductor" style="stroke:#A80036;stroke-width:1.0;"/><polygon fill="none" points="291.6,471.18,308.42,458.3,303.3,478.86,291.6,471.18" style="stroke:#A80036;stroke-width:1.0;"/><!--MD5=[a8a427422cb2a6b6e265d8bcff9e4a7a]
reverse link NoProductor to Obelisco--><path codeLine="122" d="M132.09,717.43 C109.69,745.38 83.34,778.27 66.08,799.82 " fill="none" id="NoProductor-backto-Obelisco" style="stroke:#A80036;stroke-width:1.0;"/><polygon fill="none" points="126.76,712.89,144.72,701.66,137.68,721.65,126.76,712.89" style="stroke:#A80036;stroke-width:1.0;"/><!--MD5=[f6cb7dca76c71cbf4e5242b44f4bcf31]
reverse link Productor to Material--><path codeLine="124" d="M520.91,696.27 C622.28,731.12 780.06,785.37 851.76,810.02 " fill="none" id="Productor-backto-Material" style="stroke:#A80036;stroke-width:1.0;"/><polygon fill="#A80036" points="508.54,692.02,512.9136,697.7534,519.8881,695.9213,515.5145,690.188,508.54,692.02" style="stroke:#A80036;stroke-width:1.0;"/><rect fill="none" height="6" style="stroke:#C82930;stroke-width:1.0;" width="6" x="730.5" y="758.6758"/><text fill="#000000" font-family="sans-serif" font-size="13" lengthAdjust="spacing" textLength="50" x="740.5" y="766.4951">producto</text><!--MD5=[647fbaf71a16d2ae8868a3da4746e589]
reverse link Productor to Aserradero--><path codeLine="126" d="M509.82,727.38 C542.83,752.9 578.91,780.79 603.53,799.83 " fill="none" id="Productor-backto-Aserradero" style="stroke:#A80036;stroke-width:1.0;"/><polygon fill="none" points="505.47,732.86,493.93,715.09,514.03,721.78,505.47,732.86" style="stroke:#A80036;stroke-width:1.0;"/><!--MD5=[7e89374d23260d9baacdb1182b793492]
reverse link Productor to Escuela--><path codeLine="127" d="M527.06,712.57 C590.27,743.39 668.83,781.71 714.84,804.15 " fill="none" id="Productor-backto-Escuela" style="stroke:#A80036;stroke-width:1.0;"/><polygon fill="none" points="523.74,718.74,508.84,703.68,529.88,706.16,523.74,718.74" style="stroke:#A80036;stroke-width:1.0;"/><!--MD5=[fb50fc5c3ccbb460ca8e13cb88aecd9b]
reverse link Productor to Fabrica--><path codeLine="128" d="M330.9,722.01 C284.02,749.63 230.67,781.06 196.12,801.42 " fill="none" id="Productor-backto-Fabrica" style="stroke:#A80036;stroke-width:1.0;"/><polygon fill="none" points="327.37,715.96,348.16,711.84,334.48,728.02,327.37,715.96" style="stroke:#A80036;stroke-width:1.0;"/><!--MD5=[64eb18152a1be3a3b7ead75324e81069]
reverse link Productor to Mina--><path codeLine="129" d="M360.01,729.12 C333.46,754.16 304.78,781.22 285.06,799.83 " fill="none" id="Productor-backto-Mina" style="stroke:#A80036;stroke-width:1.0;"/><polygon fill="none" points="355.53,723.72,374.88,715.09,365.14,733.9,355.53,723.72" style="stroke:#A80036;stroke-width:1.0;"/><!--MD5=[fd6543988a2100a2abcf9fd8e900040a]
reverse link Productor to MinaOro--><path codeLine="130" d="M400.13,733.68 C390.4,757.4 380.17,782.35 373,799.83 " fill="none" id="Productor-backto-MinaOro" style="stroke:#A80036;stroke-width:1.0;"/><polygon fill="none" points="393.69,730.93,407.75,715.09,406.64,736.25,393.69,730.93" style="stroke:#A80036;stroke-width:1.0;"/><!--MD5=[2da96a058feea4944d116b11e5f72e19]
reverse link Productor to PlantaElectrica--><path codeLine="131" d="M457.31,733.68 C467.19,757.4 477.57,782.35 484.85,799.83 " fill="none" id="Productor-backto-PlantaElectrica" style="stroke:#A80036;stroke-width:1.0;"/><polygon fill="none" points="450.79,736.24,449.56,715.09,463.71,730.86,450.79,736.24" style="stroke:#A80036;stroke-width:1.0;"/><!--MD5=[a9a21826a946d0c6c1302a057becaf0d]
reverse link Parser to ParserEdificio--><path codeLine="133" d="M1908.63,124.14 C1875.96,154.16 1830.84,198.9 1798.5,244 C1771.02,282.31 1747.97,332.56 1735.79,361.42 " fill="none" id="Parser-backto-ParserEdificio" style="stroke:#A80036;stroke-width:1.0;"/><polygon fill="none" points="1904.02,118.87,1923.56,110.65,1913.41,129.25,1904.02,118.87" style="stroke:#A80036;stroke-width:1.0;"/><!--MD5=[7430afe12300baa6137e1ef7f3bc4259]
reverse link Parser to ParserUbicacion--><path codeLine="134" d="M1988.33,125.13 C2017.99,155.68 2059.31,200.66 2090.5,244 C2118.62,283.08 2144.96,332.85 2159.3,361.45 " fill="none" id="Parser-backto-ParserUbicacion" style="stroke:#A80036;stroke-width:1.0;"/><polygon fill="none" points="1983.03,129.72,1974,110.55,1993.01,119.91,1983.03,129.72" style="stroke:#A80036;stroke-width:1.0;"/><!--MD5=[cf8d9b45ba8e3582a78fb54635aecfb2]
reverse link Parser to ParserMapa--><path codeLine="135" d="M1961.08,130.56 C1976.75,194.32 2005.59,311.63 2017.8,361.3 " fill="none" id="Parser-backto-ParserMapa" style="stroke:#A80036;stroke-width:1.0;"/><polygon fill="none" points="1954.2,131.9,1956.23,110.81,1967.8,128.56,1954.2,131.9" style="stroke:#A80036;stroke-width:1.0;"/><!--MD5=[bb14e2a1dc575ebdaa6f8033f5016d88]
reverse link Parser to ParserInventario--><path codeLine="136" d="M1939.92,130.56 C1924.25,194.32 1895.41,311.63 1883.2,361.3 " fill="none" id="Parser-backto-ParserInventario" style="stroke:#A80036;stroke-width:1.0;"/><polygon fill="none" points="1933.2,128.56,1944.77,110.81,1946.8,131.9,1933.2,128.56" style="stroke:#A80036;stroke-width:1.0;"/><!--MD5=[3d08d98dfc5ba37532c58e587e8fedbe]
reverse link Jugador to JugadorUno--><path codeLine="138" d="M1080.73,443.22 C1066.07,503.6 1043.58,596.24 1033.16,639.17 " fill="none" id="Jugador-backto-JugadorUno" style="stroke:#A80036;stroke-width:1.0;"/><polygon fill="none" points="1073.94,441.51,1085.46,423.72,1087.55,444.81,1073.94,441.51" style="stroke:#A80036;stroke-width:1.0;"/><!--MD5=[d39c5055b721b2a0c8b20e396ee61d4b]
reverse link Jugador to JugadorDos--><path codeLine="139" d="M1108.48,443.22 C1123.35,503.6 1146.18,596.24 1156.75,639.17 " fill="none" id="Jugador-backto-JugadorDos" style="stroke:#A80036;stroke-width:1.0;"/><polygon fill="none" points="1101.66,444.82,1103.67,423.72,1115.25,441.47,1101.66,444.82" style="stroke:#A80036;stroke-width:1.0;"/><!--MD5=[3ec9f565bd70c2072a5e5e540a185338]
reverse link Jugador to Almacen--><path codeLine="141" d="M1060.21,434.15 C1035.81,468.22 1002.36,515.24 973.5,557 C954.04,585.15 932.12,617.89 917.85,639.34 " fill="none" id="Jugador-backto-Almacen" style="stroke:#A80036;stroke-width:1.0;"/><polygon fill="#A80036" points="1067.8,423.56,1061.0544,426.1088,1060.8127,433.3159,1067.5583,430.7671,1067.8,423.56" style="stroke:#A80036;stroke-width:1.0;"/><rect fill="none" height="6" style="stroke:#C82930;stroke-width:1.0;" width="6" x="976.5" y="563.6758"/><text fill="#000000" font-family="sans-serif" font-size="13" lengthAdjust="spacing" textLength="54" x="986.5" y="571.4951">inventario</text><!--MD5=[82d6911eb7189c9936886032925cfb7b]
reverse link Jugador to Coordenada--><path codeLine="142" d="M1129.94,434.45 C1170.08,488.76 1234.63,576.09 1271.1,625.43 " fill="none" id="Jugador-backto-Coordenada" style="stroke:#A80036;stroke-width:1.0;"/><polygon fill="#A80036" points="1122.01,423.72,1122.3594,430.9226,1129.1423,433.3704,1128.793,426.1678,1122.01,423.72" style="stroke:#A80036;stroke-width:1.0;"/><rect fill="none" height="6" style="stroke:#C82930;stroke-width:1.0;" width="6" x="1236.5" y="563.6758"/><text fill="#000000" font-family="sans-serif" font-size="13" lengthAdjust="spacing" textLength="100" x="1246.5" y="571.4951">lista_ubicaciones</text><text fill="#000000" font-family="sans-serif" font-size="13" lengthAdjust="spacing" textLength="5" x="1260.7741" y="614.7794">*</text><!--MD5=[b0584bc2e8a975bed38743d279e195f2]
@startuml TP3_PerfectCell
' Pueden utilizar https://plantuml-editor.kkeisuke.com/ para copiar y pegar el codigo. 
' La pagina tiene cheatsheet para ver la sintaxis. 
skinparam SequenceMessageAlignment center

'Los getters y setter no pongo porque molestas.
' Por ahora solo pondre metodos abstractos o metodos importantes de ubicar.
class Almacen{
}

abstract class Casillero{
	- color: string
 	+ {abstract} saludar(): void
 	+ {abstract} es_casillero_transitable(): bool
	+ {abstract} esta_ocupado(): bool
	+ {abstract} obtener_contenido(): string

}

class Coordenada{
	- x: std::size_t
	- y: std::size_t
}

class Edificio{
	- nombre: string
    - materiales[CANT_MATERIALES_EDIFICIOS]: int
	- maximo_permitidos: int
	- construidos: int

 	+ Edificio(nombre: string, piedra: int, madera: int, metal: int, maximo_permitidos: int): Edificio
	+ {abstract} saludar():void
	+ {abstract} producir_material():Material


}
'Menu?
class Menu{
	+ mostrar_menu_inicio(): void
	+ mostrar_menu(): void

	+ procesar_opcion(int opcion_elegida): bool
	+ es_opcion_valida(string opcion): bool
	+ limpiar_pantalla(): void

	- construir_edificio(): void
    - demoler_edificio(): void
	- mostrar_edificios(): void
	- mostrar_materiales(): void
	- mostrar_mapa(): void
	- mostrar_coordenada(): void
	- mostrar_construidos(): void
    - producir_recursos(): void
    - lluvia_de_recursos(): void
    - vaciar_materiales(): void

}
class Programa{
    - planos: Diccionario<Edificio>
	- estado: ESTADO_JUEGO
	
	+ init(): void
	+ run(): void
	+ exit(): void

	- cargar_archivos(string ruta_materiales, string ruta_ubicaciones): void
	- guardar_archivos(string ruta_materiales, string ruta_ubicaciones): void

}

class Mapa{
	- filas: std::size_t
    - columnas: std::size_t
}

class Material{
}

'TODO: 'Hacer abstractas
abstract class Productor{
	- vida: int

	+ info_producto(): string
    + producir_material(): Material
	+ {abstract} reparar(): void
}
class NoProductor{
    + saludar():void
	+ producir_material():Materia
}


abstract class Jugador{
	+ {abstract} mover(destino: Coordenada, mapa :Mapa)
	- recolectar(): Material
}

class Parser{}
class ParserEdificio{}
class ParserInventario{}
class ParserMapa{}
class ParserUbicacion{}

' RELACIONES '
Programa *- - Menu: - menu
Programa *- - Mapa: - mapa
Programa *- -"*" Jugador: -jugadores
Almacen *- -"*" Material: - lista_material
Mapa *- -"*" Casillero: - terreno

Casillero <|- - CasilleroConstruible
Casillero <|- - CasilleroTransitable
Casillero <|- - CasilleroInaccesible

CasilleroTransitable <|- - Camino
CasilleroTransitable <|- - Betun
CasilleroTransitable <|- - Muelle


Edificio <|- - Productor
Edificio <|- - NoProductor

NoProductor <|- - Obelisco

Productor *- - Material: - producto

Productor <|- - Aserradero
Productor <|- - Escuela
Productor <|- - Fabrica
Productor <|- - Mina
Productor <|- - MinaOro
Productor <|- - PlantaElectrica

Parser <|- - ParserEdificio
Parser <|- - ParserUbicacion
Parser <|- - ParserMapa
Parser <|- - ParserInventario

Jugador <|- - JugadorUno
Jugador <|- - JugadorDos 

Jugador *- - Almacen: - inventario
Jugador *- -"*" Coordenada: - lista_ubicaciones
'InfoEdificio ??
'Mapaedificio ??

@enduml

@startuml TP3_PerfectCell
skinparam SequenceMessageAlignment center

class Almacen{
}

abstract class Casillero{
	- color: string
 	+ {abstract} saludar(): void
 	+ {abstract} es_casillero_transitable(): bool
	+ {abstract} esta_ocupado(): bool
	+ {abstract} obtener_contenido(): string

}

class Coordenada{
	- x: std::size_t
	- y: std::size_t
}

class Edificio{
	- nombre: string
    - materiales[CANT_MATERIALES_EDIFICIOS]: int
	- maximo_permitidos: int
	- construidos: int

 	+ Edificio(nombre: string, piedra: int, madera: int, metal: int, maximo_permitidos: int): Edificio
	+ {abstract} saludar():void
	+ {abstract} producir_material():Material


}
class Menu{
	+ mostrar_menu_inicio(): void
	+ mostrar_menu(): void

	+ procesar_opcion(int opcion_elegida): bool
	+ es_opcion_valida(string opcion): bool
	+ limpiar_pantalla(): void

	- construir_edificio(): void
    - demoler_edificio(): void
	- mostrar_edificios(): void
	- mostrar_materiales(): void
	- mostrar_mapa(): void
	- mostrar_coordenada(): void
	- mostrar_construidos(): void
    - producir_recursos(): void
    - lluvia_de_recursos(): void
    - vaciar_materiales(): void

}
class Programa{
    - planos: Diccionario<Edificio>
	- estado: ESTADO_JUEGO
	
	+ init(): void
	+ run(): void
	+ exit(): void

	- cargar_archivos(string ruta_materiales, string ruta_ubicaciones): void
	- guardar_archivos(string ruta_materiales, string ruta_ubicaciones): void

}

class Mapa{
	- filas: std::size_t
    - columnas: std::size_t
}

class Material{
}

abstract class Productor{
	- vida: int

	+ info_producto(): string
    + producir_material(): Material
	+ {abstract} reparar(): void
}
class NoProductor{
    + saludar():void
	+ producir_material():Materia
}


abstract class Jugador{
	+ {abstract} mover(destino: Coordenada, mapa :Mapa)
	- recolectar(): Material
}

class Parser{}
class ParserEdificio{}
class ParserInventario{}
class ParserMapa{}
class ParserUbicacion{}

Programa *- - Menu: - menu
Programa *- - Mapa: - mapa
Programa *- -"*" Jugador: -jugadores
Almacen *- -"*" Material: - lista_material
Mapa *- -"*" Casillero: - terreno

Casillero <|- - CasilleroConstruible
Casillero <|- - CasilleroTransitable
Casillero <|- - CasilleroInaccesible

CasilleroTransitable <|- - Camino
CasilleroTransitable <|- - Betun
CasilleroTransitable <|- - Muelle


Edificio <|- - Productor
Edificio <|- - NoProductor

NoProductor <|- - Obelisco

Productor *- - Material: - producto

Productor <|- - Aserradero
Productor <|- - Escuela
Productor <|- - Fabrica
Productor <|- - Mina
Productor <|- - MinaOro
Productor <|- - PlantaElectrica

Parser <|- - ParserEdificio
Parser <|- - ParserUbicacion
Parser <|- - ParserMapa
Parser <|- - ParserInventario

Jugador <|- - JugadorUno
Jugador <|- - JugadorDos 

Jugador *- - Almacen: - inventario
Jugador *- -"*" Coordenada: - lista_ubicaciones

@enduml

PlantUML version 1.2021.14(Fri Nov 12 13:46:50 ART 2021)
(GPL source distribution)
Java Runtime: Java(TM) SE Runtime Environment
JVM: Java HotSpot(TM) 64-Bit Server VM
Default Encoding: Cp1252
Language: es
Country: AR
--></g></svg>